<!--?xml version="1.0" encoding="utf-8"?-->
<!-- Generator: Adobe Illustrator 16.0.0, SVG Export Plug-In . SVG Version: 6.00 Build 0)  -->

<svg version="1.1" id="圖層_1" xmlns="http://www.w3.org/2000/svg" xmlns:xlink="http://www.w3.org/1999/xlink" x="0px" y="0px" width="841.89px" height="595.28px" viewBox="0 0 841.89 595.28" enable-background="new 0 0 841.89 595.28" xml:space="preserve" style="">
<g>
	<path fill="#DCDDDD" stroke="#FFFFFF" stroke-width="5" stroke-miterlimit="10" d="M285.775,150.241
		c4.201-10.066,7.652-18.754,10.352-26.063c0.441-1.196,0.795-1.944,1.055-2.243c0.262-0.299,0.705-0.449,1.332-0.449
		c0.521,0,0.973,0.131,1.352,0.391c0.377,0.261,0.566,0.573,0.566,0.938c0,0.339-1.014,2.813-3.045,7.422l-2.264,5.078
		l-19.398,43.984l-9.65-18.143l-7.58-13.5l-5.975,10.925l-9.099,17.05l-1.875,3.667L234,160.705l-6.646-16.133
		c-3.284-8.099-6.451-15.377-9.5-21.836l-0.234-0.508h24.439l3.363,8.589c3.44,8.589,6.164,15.031,8.171,19.326l7.237-13.275
		l2.66-4.997l1.8-3.358l3.012-5.622c0.471-0.911,0.912-1.731,1.33-2.46l5.785,11.276
		C278.751,138.081,282.205,144.258,285.775,150.241z" class="QqZaNtMO_0"></path>
	<path fill="#DCDDDD" stroke="#FFFFFF" stroke-width="5" stroke-miterlimit="10" d="M315.314,155.47v12.109
		c0,2.344,0.143,3.828,0.43,4.453c0.547,1.198,1.836,1.797,3.867,1.797c3.021,0,6.009-0.826,8.965-2.48
		c2.955-1.653,5.514-3.938,7.676-6.855c0.703-0.963,1.211-1.575,1.523-1.836c0.313-0.26,0.65-0.391,1.016-0.391
		c0.442,0,0.807,0.163,1.094,0.488c0.286,0.326,0.43,0.736,0.43,1.23c0,1.094-0.873,2.565-2.617,4.414
		c-2.292,2.37-5.137,4.297-8.535,5.781s-6.713,2.227-9.941,2.227c-5.547,0-10.443-1.861-14.688-5.586
		c-2.475-2.188-4.375-4.883-5.703-8.086c-1.172-2.813-1.758-5.625-1.758-8.438c0-2.708,0.521-5.423,1.563-8.145
		c1.041-2.721,2.474-5.071,4.297-7.051c2.109-2.317,4.609-4.114,7.5-5.391c2.838-1.25,5.807-1.875,8.906-1.875
		c4.817,0,9.18,1.42,13.086,4.258c6.094,4.428,9.114,10.847,9.063,19.258h-9.102l-11.719,0.039L315.314,155.47z M325.314,152.892
		V141.51c-0.053-2.443-0.104-3.904-0.156-4.385c-0.053-0.481-0.234-0.929-0.547-1.345c-0.729-1.013-2.214-1.521-4.453-1.521
		c-2.292,0-3.725,0.585-4.297,1.754c-0.365,0.702-0.547,2.534-0.547,5.497v11.382l4.766,0.156L325.314,152.892z" class="QqZaNtMO_1"></path>
	<path fill="#DCDDDD" stroke="#FFFFFF" stroke-width="5" stroke-miterlimit="10" d="M367.58,122.228l0.039,1.992l-0.078,13.75
		l-0.039,5.938l-0.078,10.82l0.156,19.297v1.523h-19.961v-1.836l0.094-6.211l0.047-11.25l0.094-14.727l-0.039-7.93l-0.117-8.711
		l0.039-2.656H367.58z" class="QqZaNtMO_2"></path>
	<path fill="#DCDDDD" stroke="#FFFFFF" stroke-width="5" stroke-miterlimit="10" d="M395.001,141.369v26.094l-0.039,2.5
		c0,1.615,0.201,2.689,0.605,3.223c0.403,0.534,1.217,0.801,2.441,0.801c3.072,0,6.094-0.943,9.063-2.832
		c2.969-1.888,5.391-4.42,7.266-7.598c0.572-0.963,1.133-1.445,1.68-1.445c0.391,0,0.748,0.176,1.074,0.527
		c0.325,0.352,0.488,0.723,0.488,1.113c0,0.938-0.756,2.26-2.266,3.965c-1.511,1.706-3.269,3.236-5.273,4.59
		c-4.089,2.734-8.464,4.102-13.125,4.102c-6.381,0-11.654-1.979-15.82-5.938c-4.74-4.453-7.109-9.908-7.109-16.367
		c0-6.666,2.5-12.213,7.5-16.641c4.192-3.75,9.361-5.625,15.508-5.625c4.896,0,9.18,1.159,12.852,3.477
		c1.563,0.99,2.838,2.051,3.828,3.184c0.989,1.133,1.484,2.09,1.484,2.871c0,0.391-0.144,0.723-0.43,0.996
		c-0.287,0.273-0.639,0.41-1.055,0.41c-0.547,0-1.237-0.625-2.07-1.875c-1.198-1.744-3.086-3.262-5.664-4.551
		s-5.014-1.934-7.305-1.934c-1.537,0-2.526,0.43-2.969,1.289C395.222,136.564,395.001,138.453,395.001,141.369z" class="QqZaNtMO_3"></path>
	<path fill="#DCDDDD" stroke="#FFFFFF" stroke-width="5" stroke-miterlimit="10" d="M441.252,131.837
		c4.191,0,8.164,1.159,11.914,3.477c3.463,2.136,6.105,5.053,7.93,8.75c1.613,3.256,2.422,6.706,2.422,10.352
		c0,2.5-0.477,5.014-1.426,7.539c-0.951,2.526-2.246,4.766-3.887,6.719c-2.293,2.683-5.092,4.701-8.398,6.055
		c-2.709,1.119-5.535,1.68-8.477,1.68c-4.922,0-9.35-1.458-13.281-4.375c-3.074-2.239-5.404-5.117-6.993-8.633
		c-1.328-2.969-1.992-6.106-1.992-9.414c0-6.458,2.344-11.822,7.032-16.094C430.496,133.934,435.549,131.916,441.252,131.837z
		 M440.119,134.337l-0.117,39.414c0.807,0.053,1.367,0.078,1.68,0.078c3.619,0,7.082-1.016,10.391-3.05
		c3.176-1.981,5.559-4.614,7.148-7.898c1.25-2.606,1.875-5.474,1.875-8.603c0-6.282-2.318-11.378-6.953-15.288
		c-3.75-3.154-7.826-4.731-12.227-4.731C441.551,134.259,440.951,134.286,440.119,134.337z" class="QqZaNtMO_4"></path>
	<path fill="#DCDDDD" stroke="#FFFFFF" stroke-width="5" stroke-miterlimit="10" d="M520.432,139.22
		c3.385-2.604,6.543-4.485,9.473-5.645c2.93-1.158,6.021-1.738,9.277-1.738c5.963,0,10.117,1.914,12.461,5.742
		c0.676,1.146,1.145,2.468,1.406,3.965c0.26,1.498,0.391,3.718,0.391,6.66l-0.156,10.313v2.422l0.234,13.008l0.039,1.602h-20.078
		l0.156-12.344l0.195-12.422l-0.039-5.039c-0.027-1.849-0.027-2.93,0-3.242c0.025-2.057-0.195-3.477-0.664-4.258
		s-1.316-1.172-2.539-1.172c-1.303,0-2.729,0.378-4.277,1.133c-1.551,0.756-3.223,1.901-5.02,3.438
		c0.129,1.016,0.195,2.475,0.195,4.375l-0.078,9.766l-0.078,10.977c0,3.229,0.064,6.159,0.195,8.789h-20.039l0.094-8.516
		l0.141-18.359c0-6.041-0.078-9.375-0.234-10c-0.287-1.119-1.225-1.68-2.813-1.68c-1.199,0-2.547,0.371-4.043,1.113
		c-1.498,0.742-3.158,1.869-4.98,3.379l-0.156,16.523l0.195,17.539H469.65v-1.563l0.078-7.109l0.039-9.688l0.039-9.375
		l-0.156-14.922h20v5.469c2.916-2.188,5.826-3.821,8.73-4.902c2.902-1.08,5.801-1.621,8.691-1.621c4.348,0,7.852,1.094,10.508,3.281
		C518.646,135.978,519.598,137.345,520.432,139.22z" class="QqZaNtMO_5"></path>
	<path fill="#DCDDDD" stroke="#FFFFFF" stroke-width="5" stroke-miterlimit="10" d="M577.658,155.47v12.109
		c0,2.344,0.143,3.828,0.43,4.453c0.547,1.198,1.836,1.797,3.867,1.797c3.02,0,6.008-0.826,8.965-2.48
		c2.955-1.653,5.514-3.938,7.676-6.855c0.703-0.963,1.211-1.575,1.523-1.836c0.313-0.26,0.65-0.391,1.016-0.391
		c0.441,0,0.807,0.163,1.094,0.488c0.285,0.326,0.43,0.736,0.43,1.23c0,1.094-0.873,2.565-2.617,4.414
		c-2.293,2.37-5.137,4.297-8.535,5.781s-6.713,2.227-9.941,2.227c-5.547,0-10.443-1.861-14.688-5.586
		c-2.475-2.188-4.375-4.883-5.703-8.086c-1.172-2.813-1.758-5.625-1.758-8.438c0-2.708,0.52-5.423,1.563-8.145
		c1.041-2.721,2.473-5.071,4.297-7.051c2.109-2.317,4.609-4.114,7.5-5.391c2.838-1.25,5.807-1.875,8.906-1.875
		c4.816,0,9.18,1.42,13.086,4.258c6.094,4.428,9.113,10.847,9.063,19.258h-9.102l-11.719,0.039L577.658,155.47z M587.658,152.892
		V141.51c-0.053-2.443-0.105-3.904-0.156-4.385c-0.053-0.481-0.234-0.929-0.547-1.345c-0.73-1.013-2.215-1.521-4.453-1.521
		c-2.293,0-3.725,0.585-4.297,1.754c-0.365,0.702-0.547,2.534-0.547,5.497v11.382l4.766,0.156L587.658,152.892z" class="QqZaNtMO_6"></path>
	<path fill="#DCDDDD" stroke="#FFFFFF" stroke-width="5" stroke-miterlimit="10" d="M244.377,215.142l-0.43,12.617l-0.039,1.211
		c2.266,0,4.322-0.091,6.172-0.273c0.313-0.025,0.586-0.039,0.82-0.039c1.146,0,1.719,0.528,1.719,1.583
		c0,0.976-0.6,1.464-1.797,1.464c-0.365,0-0.82-0.025-1.367-0.078c-2.058-0.156-3.529-0.234-4.414-0.234h-1.133l-0.039,7.568
		l0.134,15.174l0.101,8.118c0,1.901,0.144,3.229,0.432,3.984c0.288,0.756,0.785,1.133,1.492,1.133c0.942,0,1.95-0.547,3.024-1.641
		c1.047-1.094,1.871-2.435,2.474-4.023c0.547-1.51,1.197-2.266,1.953-2.266c0.885,0,1.328,0.495,1.328,1.484
		c0,0.99-0.443,2.221-1.328,3.691c-0.886,1.472-1.953,2.754-3.203,3.848c-3.073,2.683-7.058,4.023-11.953,4.023
		c-4.609,0-8.178-1.392-10.703-4.176c-1.303-1.404-2.201-2.972-2.695-4.702c-0.495-1.729-0.742-4.131-0.742-7.201v-2.926
		l0.039-8.235v-13.971c-0.365-0.025-0.625-0.039-0.781-0.039c-0.261,0-0.781,0.026-1.563,0.078
		c-0.651,0.053-1.198,0.078-1.641,0.078c-1.276,0-1.914-0.488-1.914-1.466c0-0.95,0.611-1.425,1.836-1.425
		c0.572,0,0.977,0.014,1.211,0.039l2.852,0.195v-4.414C231.929,221.536,238.647,218.476,244.377,215.142z" class="QqZaNtMO_7"></path>
	<path fill="#DCDDDD" stroke="#FFFFFF" stroke-width="5" stroke-miterlimit="10" d="M277.58,227.837
		c4.193,0,8.164,1.159,11.914,3.477c3.463,2.136,6.107,5.053,7.93,8.75c1.615,3.256,2.422,6.706,2.422,10.352
		c0,2.5-0.475,5.014-1.426,7.539c-0.951,2.526-2.246,4.766-3.887,6.719c-2.291,2.683-5.092,4.701-8.398,6.055
		c-2.709,1.119-5.533,1.68-8.477,1.68c-4.922,0-9.35-1.458-13.281-4.375c-3.073-2.239-5.404-5.117-6.992-8.633
		c-1.328-2.969-1.992-6.106-1.992-9.414c0-6.458,2.344-11.822,7.031-16.094C266.824,229.934,271.876,227.916,277.58,227.837z
		 M276.447,230.337l-0.117,39.414c0.807,0.053,1.367,0.078,1.68,0.078c3.619,0,7.084-1.017,10.391-3.05
		c3.178-1.981,5.561-4.614,7.148-7.898c1.25-2.606,1.875-5.474,1.875-8.603c0-6.282-2.318-11.378-6.953-15.288
		c-3.75-3.154-7.826-4.731-12.227-4.731C277.878,230.259,277.281,230.286,276.447,230.337z" class="QqZaNtMO_8"></path>
	<path fill="#DCDDDD" stroke="#FFFFFF" stroke-width="5" stroke-miterlimit="10" d="M258.127,316.846l-0.195,12.227l-0.117,11.602
		l0.117,26.875h-23.828l0.234-31.133l-0.117-10.586l-0.117-8.984l-5.156,0.117l-7.383,0.156l-1.094,0.039
		c-1.25,0-1.875-0.469-1.875-1.406c0-0.834,0.364-1.303,1.094-1.406c0.208-0.053,0.846-0.092,1.914-0.117h47.929
		c1.666,0.025,2.656,0.104,2.969,0.234c0.521,0.209,0.781,0.65,0.781,1.328c0,0.885-0.664,1.328-1.992,1.328l-3.398-0.117
		l-8.984-0.156H258.127z" class="QqZaNtMO_9"></path>
	<path fill="#DCDDDD" stroke="#FFFFFF" stroke-width="5" stroke-miterlimit="10" d="M299.845,341.533v-4.766
		c-0.026-3.307-0.079-5.338-0.157-6.094s-0.313-1.432-0.703-2.031c-0.939-1.459-3.131-2.188-6.573-2.188
		c-5.321,0-9.43,1.666-12.324,5c-1.174,1.354-2.165,2.031-2.973,2.031c-0.601,0-1.123-0.209-1.565-0.625
		c-0.443-0.416-0.665-0.898-0.665-1.445c0-1.641,1.939-3.334,5.82-5.078c3.697-1.666,8.477-2.5,14.336-2.5
		c9.635,0,16.432,1.459,20.391,4.375c1.719,1.275,2.838,2.709,3.359,4.297c0.521,1.588,0.781,4.389,0.781,8.398v15.508
		c-0.104,2.865-0.02,5.02,0.254,6.465s0.892,3.002,1.855,4.668h-21.875v-4.102c-2.396,1.641-4.772,2.877-7.129,3.711
		c-2.357,0.832-4.682,1.25-6.973,1.25c-3.881,0-7.331-1.133-10.352-3.398c-3.933-2.969-5.898-6.822-5.898-11.563
		c0-4.193,1.591-7.578,4.771-10.156c3.703-3.047,8.292-4.57,13.768-4.57c2.243,0,4.224,0.201,5.945,0.605
		C295.66,339.73,297.628,340.465,299.845,341.533z M299.845,344.346c-3.281-1.641-5.82-2.461-7.617-2.461
		c-1.511,0-2.5,0.6-2.969,1.797c-0.261,0.65-0.391,2.539-0.391,5.664v9.336c0.025,2.057,0.091,3.307,0.195,3.75
		c0.26,1.197,1.146,1.797,2.656,1.797c1.197,0,2.532-0.357,4.004-1.074c1.471-0.717,2.818-1.66,4.043-2.832L299.845,344.346z" class="QqZaNtMO_10"></path>
	<path fill="#DCDDDD" stroke="#FFFFFF" stroke-width="5" stroke-miterlimit="10" d="M348.556,324.893v1.133l-0.078,6.094
		l-0.078,9.453l-0.117,14.375l0.156,8.086l0.078,3.516h-20.078l0.195-14.375l0.117-12.695l-0.078-6.68l-0.117-7.422l0.039-1.484
		H348.556z M338.439,311.221c6.875,0,10.313,1.797,10.313,5.391c0,1.744-0.905,3.105-2.715,4.082
		c-1.811,0.977-4.355,1.465-7.637,1.465c-6.537,0-9.805-1.85-9.805-5.547C328.595,313.07,331.876,311.273,338.439,311.221z" class="QqZaNtMO_11"></path>
	<path fill="#DCDDDD" stroke="#FFFFFF" stroke-width="5" stroke-miterlimit="10" d="M357.306,358.486
		c0.469,0,1.016,0.352,1.641,1.055c1.953,2.135,4.342,3.848,7.168,5.137c2.825,1.289,5.618,1.934,8.379,1.934
		c3.047,0,4.57-0.926,4.57-2.775c0-1.172-0.533-2.492-1.601-3.965c-1.066-1.473-3.618-4.383-7.655-8.73
		c-5.079-5.494-8.465-9.568-10.158-12.225c-2.24-3.516-3.359-6.861-3.359-10.039c0-4.791,2.135-8.711,6.406-11.758
		c4.192-2.994,9.361-4.492,15.508-4.492c4.297,0,8.242,0.873,11.836,2.617c1.354,0.678,2.52,1.459,3.496,2.344
		s1.465,1.627,1.465,2.227c0,0.287-0.137,0.553-0.41,0.801s-0.554,0.371-0.84,0.371c-0.443,0-1.094-0.404-1.953-1.211
		c-1.406-1.328-3.256-2.428-5.547-3.301c-2.292-0.873-4.492-1.309-6.602-1.309c-1.303,0-2.363,0.279-3.184,0.84
		s-1.23,1.283-1.23,2.168c0,1.068,0.507,2.371,1.521,3.908c1.014,1.539,2.731,3.582,5.154,6.133
		c7.659,8.15,12.348,13.645,14.066,16.482c1.797,2.994,2.695,5.885,2.695,8.672c0,2.369-0.639,4.609-1.914,6.719
		c-1.276,2.109-3.047,3.842-5.313,5.195c-4.323,2.578-9.597,3.867-15.82,3.867c-5.729,0-10.769-1.484-15.117-4.453
		c-3.047-2.084-4.57-3.711-4.57-4.883c0-0.338,0.137-0.645,0.41-0.918S356.941,358.486,357.306,358.486z" class="QqZaNtMO_12"></path>
	<path fill="#DCDDDD" stroke="#FFFFFF" stroke-width="5" stroke-miterlimit="10" d="M425.549,330.4
		c2.5-1.693,4.543-2.93,6.133-3.711c3.906-1.9,7.773-2.852,11.602-2.852c2.76,0,5.246,0.494,7.461,1.484
		c2.213,0.99,3.854,2.344,4.922,4.063c1.275,2.057,1.914,5.834,1.914,11.328l-0.078,5.82l-0.078,7.695l0.313,13.32h-20.078
		l0.156-24.141l-0.234-12.344c-0.26-1.354-1.221-2.031-2.883-2.031c-1.219,0-2.588,0.371-4.107,1.113
		c-1.518,0.742-3.199,1.869-5.041,3.379l-0.078,9.805l0.133,16.992l0.102,7.227h-20.079l0.078-16.484v-18.789l-0.117-16.25
		l0.039-1.797h19.922v1.094l0.039,6.68l-0.039,4.141V330.4z" class="QqZaNtMO_13"></path>
	<path fill="#DCDDDD" stroke="#FFFFFF" stroke-width="5" stroke-miterlimit="10" d="M493.986,341.533v-4.766
		c-0.027-3.307-0.08-5.338-0.158-6.094s-0.313-1.432-0.703-2.031c-0.939-1.459-3.131-2.188-6.572-2.188
		c-5.322,0-9.43,1.666-12.324,5c-1.174,1.354-2.166,2.031-2.973,2.031c-0.602,0-1.123-0.209-1.566-0.625s-0.664-0.898-0.664-1.445
		c0-1.641,1.939-3.334,5.82-5.078c3.697-1.666,8.477-2.5,14.336-2.5c9.635,0,16.432,1.459,20.391,4.375
		c1.719,1.275,2.838,2.709,3.359,4.297c0.52,1.588,0.781,4.389,0.781,8.398v15.508c-0.105,2.865-0.02,5.02,0.254,6.465
		s0.891,3.002,1.855,4.668h-21.875v-4.102c-2.396,1.641-4.773,2.877-7.129,3.711c-2.357,0.832-4.682,1.25-6.973,1.25
		c-3.881,0-7.332-1.133-10.352-3.398c-3.934-2.969-5.898-6.822-5.898-11.563c0-4.193,1.59-7.578,4.771-10.156
		c3.703-3.047,8.291-4.57,13.768-4.57c2.242,0,4.223,0.201,5.945,0.605C489.801,339.73,491.77,340.465,493.986,341.533z
		 M493.986,344.346c-3.281-1.641-5.82-2.461-7.617-2.461c-1.512,0-2.5,0.6-2.969,1.797c-0.262,0.65-0.391,2.539-0.391,5.664v9.336
		c0.025,2.057,0.09,3.307,0.195,3.75c0.26,1.197,1.145,1.797,2.656,1.797c1.197,0,2.531-0.357,4.004-1.074
		c1.471-0.717,2.818-1.66,4.043-2.832L493.986,344.346z" class="QqZaNtMO_14"></path>
	<path fill="#DCDDDD" stroke="#FFFFFF" stroke-width="5" stroke-miterlimit="10" d="M542.58,324.893v5.43
		c3.047-2.162,6.027-3.783,8.945-4.863c2.916-1.08,5.754-1.621,8.516-1.621c3.697,0,6.822,0.846,9.375,2.539
		c1.926,1.275,3.223,2.857,3.887,4.746s0.996,4.967,0.996,9.238l-0.078,18.086l0.117,9.102h-19.844l0.133-10.859l0.102-7.969
		l-0.039-12.031c-0.027-2.787-0.059-4.447-0.098-4.98s-0.164-1.01-0.371-1.426c-0.418-0.834-1.316-1.25-2.695-1.25
		c-1.277,0-2.656,0.365-4.141,1.094s-3.086,1.822-4.805,3.281l-0.039,1.602l-0.078,10.977l-0.078,8.398l0.117,11.484l0.039,1.68
		H522.58l0.117-15.313l0.117-10.117l-0.117-8.75l-0.117-8.477H542.58z" class="QqZaNtMO_15"></path>
	<path fill="#DCDDDD" stroke="#FFFFFF" stroke-width="5" stroke-miterlimit="10" d="M245.744,411.283l-0.234,27.695l0.234,23.516
		c1.352,0.182,2.47,0.273,3.355,0.273c2.548,0,5.162-0.455,7.841-1.367c2.678-0.912,5.045-2.148,7.1-3.711
		c1.325-1.016,2.698-2.369,4.116-4.063c1.416-1.693,2.555-3.346,3.412-4.961c0.494-0.938,1.027-1.406,1.6-1.406
		c0.859,0,1.287,0.365,1.287,1.094c0,0.781-0.645,2.104-1.934,3.965s-2.701,3.535-4.238,5.02c-3.334,3.203-7.252,5.43-11.757,6.68
		c-2.709,0.754-5.313,1.133-7.813,1.133c-3.646,0-7.305-0.781-10.977-2.344c-5.886-2.475-10.365-6.393-13.438-11.758
		c-2.553-4.453-3.828-9.18-3.828-14.18c0-5.104,1.328-9.922,3.984-14.453c2.838-4.818,6.849-8.502,12.031-11.055
		c3.775-1.822,7.852-2.734,12.227-2.734c7.5,0,13.984,2.539,19.453,7.617c2.604,2.422,3.906,4.166,3.906,5.234
		c0,0.287-0.129,0.547-0.389,0.781c-0.262,0.234-0.547,0.352-0.859,0.352c-0.52,0-1.145-0.508-1.871-1.523
		c-2.236-3.1-5.188-5.553-8.855-7.363c-3.667-1.811-7.542-2.715-11.624-2.715C247.512,411.01,246.603,411.102,245.744,411.283z" class="QqZaNtMO_16"></path>
	<path fill="#DCDDDD" stroke="#FFFFFF" stroke-width="5" stroke-miterlimit="10" d="M307.072,437.533v-4.766
		c-0.026-3.307-0.079-5.338-0.157-6.094s-0.313-1.432-0.703-2.031c-0.939-1.459-3.131-2.188-6.573-2.188
		c-5.321,0-9.43,1.666-12.324,5c-1.174,1.354-2.165,2.031-2.973,2.031c-0.601,0-1.123-0.209-1.565-0.625
		c-0.443-0.416-0.665-0.898-0.665-1.445c0-1.641,1.939-3.334,5.82-5.078c3.697-1.666,8.477-2.5,14.336-2.5
		c9.635,0,16.432,1.459,20.391,4.375c1.719,1.275,2.838,2.709,3.359,4.297c0.521,1.588,0.781,4.389,0.781,8.398v15.508
		c-0.104,2.865-0.02,5.02,0.254,6.465s0.892,3.002,1.855,4.668h-21.875v-4.102c-2.396,1.641-4.772,2.877-7.129,3.711
		c-2.357,0.832-4.682,1.25-6.973,1.25c-3.881,0-7.331-1.133-10.352-3.398c-3.933-2.969-5.898-6.822-5.898-11.563
		c0-4.193,1.591-7.578,4.771-10.156c3.703-3.047,8.292-4.57,13.768-4.57c2.243,0,4.224,0.201,5.945,0.605
		C302.886,435.73,304.855,436.465,307.072,437.533z M307.072,440.346c-3.281-1.641-5.82-2.461-7.617-2.461
		c-1.511,0-2.5,0.6-2.969,1.797c-0.261,0.65-0.391,2.539-0.391,5.664v9.336c0.025,2.057,0.091,3.307,0.195,3.75
		c0.26,1.197,1.146,1.797,2.656,1.797c1.197,0,2.532-0.357,4.004-1.074c1.471-0.717,2.818-1.66,4.043-2.832L307.072,440.346z" class="QqZaNtMO_17"></path>
	<path fill="#DCDDDD" stroke="#FFFFFF" stroke-width="5" stroke-miterlimit="10" d="M356.291,423.197l-0.078,11.719l-0.078,14.531
		l0.156,12.539v1.563H336.33v-1.328l0.078-6.328l0.078-13.711l-0.156-17.852v-1.133h-0.703l-3.008,0.117
		c-1.172,0-1.758-0.455-1.758-1.367s0.533-1.367,1.602-1.367l1.875,0.117h2.266c0.364-2.188,0.826-3.9,1.387-5.137
		c0.56-1.236,1.426-2.428,2.598-3.574c3.255-3.229,7.903-4.844,13.945-4.844c2.969,0,5.586,0.445,7.852,1.336
		s3.398,1.914,3.398,3.066c0,0.447-0.176,0.834-0.527,1.16c-0.352,0.328-0.762,0.492-1.23,0.492c-0.521,0-1.029-0.287-1.523-0.859
		c-0.625-0.781-1.107-1.289-1.445-1.523c-0.339-0.234-0.742-0.352-1.211-0.352c-1.328,0-2.266,0.76-2.813,2.275
		c-0.547,1.52-0.834,4.172-0.859,7.959h3.633c0.156,0,0.494-0.025,1.016-0.078c0.442-0.025,0.859-0.039,1.25-0.039
		c1.067,0,1.602,0.469,1.602,1.406c0,0.885-0.639,1.328-1.914,1.328l-2.852-0.078L356.291,423.197z" class="QqZaNtMO_18"></path>
	<path fill="#DCDDDD" stroke="#FFFFFF" stroke-width="5" stroke-miterlimit="10" d="M381.408,443.471v12.109
		c0,2.344,0.143,3.828,0.43,4.453c0.547,1.197,1.836,1.797,3.867,1.797c3.021,0,6.009-0.826,8.965-2.48
		c2.955-1.654,5.514-3.939,7.676-6.855c0.703-0.963,1.211-1.576,1.523-1.836s0.65-0.391,1.016-0.391
		c0.442,0,0.807,0.162,1.094,0.488c0.286,0.326,0.43,0.736,0.43,1.23c0,1.094-0.873,2.564-2.617,4.414
		c-2.292,2.369-5.137,4.297-8.535,5.781s-6.713,2.227-9.941,2.227c-5.547,0-10.443-1.861-14.688-5.586
		c-2.475-2.188-4.375-4.883-5.703-8.086c-1.172-2.813-1.758-5.625-1.758-8.438c0-2.709,0.521-5.424,1.563-8.145
		c1.041-2.721,2.474-5.072,4.297-7.051c2.109-2.318,4.609-4.115,7.5-5.391c2.838-1.25,5.807-1.875,8.906-1.875
		c4.817,0,9.18,1.42,13.086,4.258c6.094,4.428,9.114,10.846,9.063,19.258h-9.102l-11.719,0.039L381.408,443.471z M391.408,440.893
		V429.51c-0.053-2.443-0.104-3.904-0.156-4.385c-0.053-0.48-0.234-0.93-0.547-1.346c-0.729-1.014-2.214-1.52-4.453-1.52
		c-2.292,0-3.725,0.584-4.297,1.754c-0.365,0.701-0.547,2.533-0.547,5.496v11.383l4.766,0.156L391.408,440.893z" class="QqZaNtMO_19"></path>
</g>
<style data-made-with="vivus-instant">.QqZaNtMO_0{stroke-dasharray:353 355;stroke-dashoffset:354;animation:QqZaNtMO_draw 1666ms linear 0ms forwards;}.QqZaNtMO_1{stroke-dasharray:259 261;stroke-dashoffset:260;animation:QqZaNtMO_draw 1666ms linear 43ms forwards;}.QqZaNtMO_2{stroke-dasharray:147 149;stroke-dashoffset:148;animation:QqZaNtMO_draw 1666ms linear 87ms forwards;}.QqZaNtMO_3{stroke-dasharray:208 210;stroke-dashoffset:209;animation:QqZaNtMO_draw 1666ms linear 131ms forwards;}.QqZaNtMO_4{stroke-dasharray:245 247;stroke-dashoffset:246;animation:QqZaNtMO_draw 1666ms linear 175ms forwards;}.QqZaNtMO_5{stroke-dasharray:407 409;stroke-dashoffset:408;animation:QqZaNtMO_draw 1666ms linear 219ms forwards;}.QqZaNtMO_6{stroke-dasharray:259 261;stroke-dashoffset:260;animation:QqZaNtMO_draw 1666ms linear 263ms forwards;}.QqZaNtMO_7{stroke-dasharray:196 198;stroke-dashoffset:197;animation:QqZaNtMO_draw 1666ms linear 307ms forwards;}.QqZaNtMO_8{stroke-dasharray:245 247;stroke-dashoffset:246;animation:QqZaNtMO_draw 1666ms linear 350ms forwards;}.QqZaNtMO_9{stroke-dasharray:214 216;stroke-dashoffset:215;animation:QqZaNtMO_draw 1666ms linear 394ms forwards;}.QqZaNtMO_10{stroke-dasharray:290 292;stroke-dashoffset:291;animation:QqZaNtMO_draw 1666ms linear 438ms forwards;}.QqZaNtMO_11{stroke-dasharray:177 179;stroke-dashoffset:178;animation:QqZaNtMO_draw 1666ms linear 482ms forwards;}.QqZaNtMO_12{stroke-dasharray:241 243;stroke-dashoffset:242;animation:QqZaNtMO_draw 1666ms linear 526ms forwards;}.QqZaNtMO_13{stroke-dasharray:287 289;stroke-dashoffset:288;animation:QqZaNtMO_draw 1666ms linear 570ms forwards;}.QqZaNtMO_14{stroke-dasharray:290 292;stroke-dashoffset:291;animation:QqZaNtMO_draw 1666ms linear 614ms forwards;}.QqZaNtMO_15{stroke-dasharray:265 267;stroke-dashoffset:266;animation:QqZaNtMO_draw 1666ms linear 657ms forwards;}.QqZaNtMO_16{stroke-dasharray:267 269;stroke-dashoffset:268;animation:QqZaNtMO_draw 1666ms linear 701ms forwards;}.QqZaNtMO_17{stroke-dasharray:290 292;stroke-dashoffset:291;animation:QqZaNtMO_draw 1666ms linear 745ms forwards;}.QqZaNtMO_18{stroke-dasharray:188 190;stroke-dashoffset:189;animation:QqZaNtMO_draw 1666ms linear 789ms forwards;}.QqZaNtMO_19{stroke-dasharray:260 262;stroke-dashoffset:261;animation:QqZaNtMO_draw 1666ms linear 833ms forwards;}@keyframes QqZaNtMO_draw{100%{stroke-dashoffset:0;}}@keyframes QqZaNtMO_fade{0%{stroke-opacity:1;}94.02985074626866%{stroke-opacity:1;}100%{stroke-opacity:0;}}</style></svg>
