<!--?xml version="1.0" encoding="utf-8"?-->
<!-- Generator: Adobe Illustrator 16.0.0, SVG Export Plug-In . SVG Version: 6.00 Build 0)  -->

<svg version="1.1" id="圖層_1" xmlns="http://www.w3.org/2000/svg" xmlns:xlink="http://www.w3.org/1999/xlink" x="0px" y="0px" width="551.445px" height="389.913px" viewBox="290.445 205.366 551.445 389.913" enable-background="new 290.445 205.366 551.445 389.913" xml:space="preserve" style="">
<g>
	
		<path fill="#DADADA" stroke="#DADADA" stroke-width="4" stroke-linecap="round" stroke-linejoin="round" stroke-miterlimit="10" d="
		M403.891,220.001h22.112l-0.938,3.633h-1.328c-1.354,0-2.338,0.283-2.949,0.847c-0.612,0.564-0.918,1.398-0.918,2.501l0.078,1.339
		l2.969,31.563l16.424-31.323c-0.064-1.826-0.486-3.104-1.268-3.833c-0.781-0.729-2.136-1.094-4.063-1.094h-2.109l0.898-3.633
		h25.078l-0.898,3.633h-2.773c-1.563,0-2.644,0.23-3.242,0.691c-0.6,0.461-0.898,1.191-0.898,2.192l0.039,0.75l3.008,32.227
		l15.977-30.508c0.391-0.787,0.586-1.573,0.586-2.361c0-0.734-0.15-1.325-0.449-1.771c-0.3-0.446-0.749-0.774-1.348-0.984
		c-0.417-0.158-1.42-0.236-3.008-0.236l0.898-3.633h16.085l-0.82,3.633c-1.745,0.053-3.093,0.417-4.043,1.096
		s-2.09,2.271-3.418,4.777l-25.932,49.517h-3.507l-3.951-43.006l-22.461,43.006h-3.672l-5.198-51.523
		c-0.131-1.368-0.534-2.354-1.211-2.959c-0.678-0.605-1.641-0.908-2.891-0.908h-1.641L403.891,220.001z" class="FCXLIkJo_0"></path>
	
		<path fill="#DADADA" stroke="#DADADA" stroke-width="4" stroke-linecap="round" stroke-linejoin="round" stroke-miterlimit="10" d="
		M485.965,263.361c-0.104,0.99-0.156,1.811-0.156,2.461c0,2.761,0.677,4.883,2.031,6.367c1.354,1.484,3.164,2.227,5.43,2.227
		c1.9,0,3.77-0.455,5.605-1.367c1.836-0.911,4.082-2.721,6.738-5.43l2.617,2.031c-3.047,3.359-6.035,5.742-8.965,7.148
		s-6.088,2.109-9.473,2.109c-4.792,0-8.562-1.373-11.309-4.121c-2.748-2.747-4.121-6.478-4.121-11.191
		c0-4.192,1.146-8.209,3.438-12.051c2.291-3.841,5.423-6.868,9.395-9.082c3.971-2.213,8.248-3.32,12.832-3.32
		c3.359,0,5.963,0.808,7.813,2.422c1.849,1.615,2.773,3.659,2.773,6.133c0,2.058-0.742,4.121-2.227,6.191s-3.894,3.867-7.227,5.391
		C497.826,260.802,492.761,262.163,485.965,263.361z M486.433,260.079c4.453-0.857,7.695-2.234,9.727-4.131
		c2.786-2.624,4.18-5.573,4.18-8.847c0-1.352-0.319-2.41-0.957-3.176c-0.639-0.767-1.439-1.15-2.402-1.15
		c-1.928,0-3.725,1.157-5.391,3.469C489.141,249.595,487.423,254.208,486.433,260.079z" class="FCXLIkJo_1"></path>
	
		<path fill="#DADADA" stroke="#DADADA" stroke-width="4" stroke-linecap="round" stroke-linejoin="round" stroke-miterlimit="10" d="
		M524.674,220.001l17.62-0.742l-13.291,49.453c-0.417,1.497-0.625,2.564-0.625,3.206c0,0.481,0.085,0.842,0.254,1.082
		c0.169,0.241,0.413,0.361,0.733,0.361c0.696,0,1.486-0.43,2.372-1.289c1.822-1.771,3.698-4.322,5.628-7.656l2.975,1.523
		c-2.379,4.584-4.916,7.891-7.612,9.922s-5.339,3.047-7.93,3.047c-1.982,0-3.529-0.566-4.639-1.699
		c-1.11-1.133-1.665-2.728-1.665-4.785c0-1.771,0.254-3.594,0.763-5.469l10.495-39.336c0.208-0.755,0.313-1.419,0.313-1.992
		c0-0.729-0.313-1.302-0.938-1.719c-0.625-0.416-1.797-0.625-3.516-0.625h-1.953L524.674,220.001z" class="FCXLIkJo_2"></path>
	
		<path fill="#DADADA" stroke="#DADADA" stroke-width="4" stroke-linecap="round" stroke-linejoin="round" stroke-miterlimit="10" d="
		M578.972,267.423l2.695,2.109c-2.475,3.047-5.287,5.371-8.438,6.973c-3.151,1.602-6.42,2.402-9.805,2.402
		c-4.714,0-8.477-1.393-11.289-4.18c-2.813-2.786-4.219-6.484-4.219-11.094c0-4.192,1.113-8.242,3.34-12.148
		s5.123-6.939,8.691-9.102c3.567-2.161,7.408-3.242,11.523-3.242c3.932,0,6.959,0.898,9.082,2.695
		c2.122,1.797,3.184,4.076,3.184,6.836c0,2.058-0.573,3.705-1.719,4.941c-1.146,1.237-2.578,1.855-4.297,1.855
		c-1.563,0-2.846-0.462-3.848-1.387c-1.003-0.924-1.504-2.09-1.504-3.496c0-0.963,0.247-1.771,0.742-2.422
		c0.494-0.65,1.666-1.471,3.516-2.461c0.572-0.286,0.859-0.586,0.859-0.898c0-0.469-0.352-0.911-1.055-1.328
		c-0.964-0.572-2.148-0.859-3.555-0.859c-3.412,0-6.342,1.745-8.789,5.234c-3.1,4.428-4.648,10.026-4.648,16.797
		c0,3.229,0.696,5.645,2.09,7.246c1.393,1.602,3.223,2.402,5.488,2.402C570.926,274.298,574.91,272.007,578.972,267.423z" class="FCXLIkJo_3"></path>
	
		<path fill="#DADADA" stroke="#DADADA" stroke-width="4" stroke-linecap="round" stroke-linejoin="round" stroke-miterlimit="10" d="
		M613.113,239.142c5.025,0,9.121,1.55,12.285,4.648c3.164,3.1,4.746,7.031,4.746,11.797c0,6.016-2.143,11.406-6.426,16.172
		c-4.284,4.766-9.916,7.148-16.895,7.148c-5.104,0-9.232-1.543-12.383-4.629c-3.151-3.086-4.727-7.037-4.727-11.855
		c0-4.114,1.061-8.021,3.184-11.719c2.122-3.697,4.928-6.549,8.418-8.555C604.805,240.145,608.738,239.142,613.113,239.142z
		 M613.492,242.423c-2.036,0-3.863,0.873-5.48,2.617c-2.244,2.396-4.084,6.081-5.52,11.055c-1.436,4.975-2.152,8.972-2.152,11.992
		c0,2.37,0.567,4.187,1.702,5.449c1.136,1.264,2.63,1.895,4.482,1.895c1.774,0,3.34-0.625,4.696-1.875
		c1.983-1.875,3.862-5.24,5.637-10.098c1.774-4.856,2.662-9.381,2.662-13.574c0-2.344-0.567-4.173-1.703-5.488
		C616.681,243.081,615.24,242.423,613.492,242.423z" class="FCXLIkJo_4"></path>
	
		<path fill="#DADADA" stroke="#DADADA" stroke-width="4" stroke-linecap="round" stroke-linejoin="round" stroke-miterlimit="10" d="
		M675.601,250.118c2.37-3.489,4.886-6.067,7.545-7.734c2.66-1.666,5.276-2.5,7.849-2.5c2.571,0,4.57,0.677,5.994,2.03
		c1.425,1.354,2.138,3.172,2.138,5.457c0,1.738-0.261,3.611-0.78,5.619l-4.548,17.082c-0.104,0.424-0.156,0.833-0.156,1.229
		c0,0.905,0.368,1.356,1.104,1.356c1.783,0,4.459-2.813,8.025-8.438l2.881,1.797c-4.822,8.359-10.018,12.539-15.586,12.539
		c-2.025,0-3.604-0.573-4.735-1.719c-1.133-1.146-1.699-2.813-1.699-5c0-1.041,0.149-2.135,0.45-3.281l3.822-14.297
		c0.706-2.63,1.06-4.557,1.06-5.781c0-0.963-0.253-1.738-0.755-2.324c-0.504-0.586-1.137-0.879-1.897-0.879
		c-1.179,0-2.456,0.498-3.831,1.494c-1.891,1.379-3.721,3.614-5.488,6.705c-1.769,3.091-3.208,6.604-4.319,10.54l-3.942,13.761
		l-10.3,0.273l6.573-24.609c0.442-1.588,0.664-3.111,0.664-4.57c0-1.172-0.254-2.076-0.764-2.715
		c-0.509-0.638-1.162-0.957-1.962-0.957c-1.925,0-4.243,1.519-6.955,4.555s-4.831,7.394-6.359,13.072l-3.952,14.951l-10.37,0.273
		l7.867-29.453c0.156-0.584,0.234-1.103,0.234-1.554c0-0.771-0.307-1.368-0.918-1.793c-0.612-0.425-1.738-0.638-3.379-0.638h-1.758
		l1.016-3.555l16.504-0.742l-2.5,9.57c3.023-3.828,5.742-6.451,8.155-7.871c2.413-1.419,4.846-2.129,7.299-2.129
		c2.505,0,4.468,0.678,5.89,2.031c1.422,1.354,2.133,3.164,2.133,5.43C675.848,247.996,675.766,248.921,675.601,250.118z" class="FCXLIkJo_5"></path>
	
		<path fill="#DADADA" stroke="#DADADA" stroke-width="4" stroke-linecap="round" stroke-linejoin="round" stroke-miterlimit="10" d="
		M723.035,263.361c-0.104,0.99-0.156,1.811-0.156,2.461c0,2.761,0.677,4.883,2.031,6.367c1.354,1.484,3.164,2.227,5.43,2.227
		c1.9,0,3.77-0.455,5.605-1.367c1.836-0.911,4.082-2.721,6.738-5.43l2.617,2.031c-3.047,3.359-6.035,5.742-8.965,7.148
		s-6.088,2.109-9.473,2.109c-4.792,0-8.562-1.373-11.309-4.121c-2.748-2.747-4.121-6.478-4.121-11.191
		c0-4.192,1.146-8.209,3.438-12.051c2.291-3.841,5.423-6.868,9.395-9.082c3.971-2.213,8.248-3.32,12.832-3.32
		c3.359,0,5.963,0.808,7.813,2.422c1.849,1.615,2.773,3.659,2.773,6.133c0,2.058-0.742,4.121-2.227,6.191s-3.894,3.867-7.227,5.391
		C734.896,260.802,729.832,262.163,723.035,263.361z M723.504,260.079c4.453-0.857,7.695-2.234,9.727-4.131
		c2.786-2.624,4.18-5.573,4.18-8.847c0-1.352-0.319-2.41-0.957-3.176c-0.639-0.767-1.439-1.15-2.402-1.15
		c-1.928,0-3.725,1.157-5.391,3.469C726.212,249.595,724.493,254.208,723.504,260.079z" class="FCXLIkJo_6"></path>
	
		<path fill="#DADADA" stroke="#DADADA" stroke-width="4" stroke-linecap="round" stroke-linejoin="round" stroke-miterlimit="10" d="
		M412.481,324.517h10.268l-3.372,12.578h8.125l-1.211,4.063h-8.002l-6.425,23.964c-0.209,0.706-0.313,1.387-0.313,2.041
		c0,0.784,0.157,1.374,0.471,1.767c0.313,0.393,0.732,0.588,1.257,0.588c2.069,0,5.094-3.033,9.076-9.102l2.868,1.797
		c-2.579,4.375-5.288,7.585-8.127,9.629s-5.562,3.066-8.167,3.066c-2.292,0-4.103-0.645-5.431-1.934
		c-1.329-1.289-1.993-2.962-1.993-5.02c0-1.563,0.251-3.284,0.754-5.166l5.778-21.631h-7.461l1.211-4.063h7.334L412.481,324.517z" class="FCXLIkJo_7"></path>
	
		<path fill="#DADADA" stroke="#DADADA" stroke-width="4" stroke-linecap="round" stroke-linejoin="round" stroke-miterlimit="10" d="
		M454.558,335.142c5.025,0,9.121,1.55,12.285,4.648c3.164,3.1,4.746,7.031,4.746,11.797c0,6.016-2.143,11.406-6.426,16.172
		c-4.284,4.766-9.916,7.148-16.895,7.148c-5.104,0-9.232-1.543-12.383-4.629c-3.151-3.086-4.727-7.037-4.727-11.855
		c0-4.114,1.061-8.021,3.184-11.719c2.122-3.697,4.928-6.549,8.418-8.555C446.251,336.145,450.183,335.142,454.558,335.142z
		 M454.937,338.423c-2.036,0-3.863,0.873-5.48,2.617c-2.244,2.396-4.084,6.081-5.52,11.055c-1.436,4.975-2.152,8.972-2.152,11.992
		c0,2.37,0.566,4.187,1.702,5.449c1.136,1.264,2.63,1.895,4.482,1.895c1.774,0,3.34-0.625,4.696-1.875
		c1.983-1.875,3.862-5.24,5.637-10.098c1.774-4.856,2.662-9.381,2.662-13.574c0-2.344-0.567-4.173-1.703-5.488
		C458.127,339.081,456.685,338.423,454.937,338.423z" class="FCXLIkJo_8"></path>
	
		<path fill="#DADADA" stroke="#DADADA" stroke-width="4" stroke-linecap="round" stroke-linejoin="round" stroke-miterlimit="10" d="
		M410.808,412.001h48.984l-5.117,21.094h-3.555c0.755-3.516,1.133-6.354,1.133-8.516c0-3.021-0.683-5.254-2.049-6.699
		c-1.365-1.445-3.4-2.168-6.104-2.168c-1.618,0-2.785,0.257-3.501,0.77c-0.717,0.514-1.26,1.437-1.631,2.771l-11.564,43.449
		c-0.078,0.339-0.117,0.704-0.117,1.095c0,0.729,0.293,1.303,0.879,1.72s1.529,0.625,2.832,0.625h5.352l-0.938,3.633h-31.137
		l0.898-3.633h5.625c2.317,0,3.828-1.263,4.531-3.789l11.498-43.047c0.13-0.391,0.195-0.781,0.195-1.172
		c0-0.807-0.277-1.412-0.834-1.816c-0.555-0.403-1.49-0.605-2.806-0.605c-2.606,0-5.07,1.055-7.392,3.164
		c-3.276,2.995-6.463,7.734-9.559,14.219h-3.398L410.808,412.001z" class="FCXLIkJo_9"></path>
	
		<path fill="#DADADA" stroke="#DADADA" stroke-width="4" stroke-linecap="round" stroke-linejoin="round" stroke-miterlimit="10" d="
		M488.576,438.72l2.114-5.664l10.013-0.742l-7.764,27.924c-0.521,1.903-0.781,3.115-0.781,3.637c0,0.392,0.084,0.691,0.254,0.9
		c0.169,0.209,0.424,0.313,0.763,0.313c1.938,0,4.45-3.033,7.54-9.102l2.945,1.602c-4.57,8.881-9.559,13.32-14.965,13.32
		c-1.854,0-3.291-0.566-4.309-1.699c-1.019-1.133-1.619-2.818-1.802-5.059c-1.975,2.5-3.891,4.252-5.748,5.254
		s-3.825,1.504-5.902,1.504c-3.56,0-6.494-1.282-8.807-3.848c-2.312-2.564-3.468-6.074-3.468-10.527
		c0-4.271,1.033-8.359,3.101-12.266s4.726-6.946,7.977-9.121c3.25-2.174,6.578-3.262,9.985-3.262c2.34,0,4.225,0.547,5.655,1.641
		C486.807,434.618,487.874,436.351,488.576,438.72z M481.991,436.611c-3.171,0-6.022,2.227-8.555,6.68
		c-2.533,4.453-3.8,9.558-3.8,15.313c0,2.683,0.401,4.577,1.205,5.684c0.803,1.107,1.957,1.66,3.46,1.66
		c1.581,0,3.278-0.801,5.092-2.403c1.814-1.603,3.421-4.286,4.821-8.051c1.399-3.765,2.112-7.769,2.141-12.011
		c0-2.524-0.383-4.301-1.15-5.329C484.439,437.125,483.368,436.611,481.991,436.611z" class="FCXLIkJo_10"></path>
	
		<path fill="#DADADA" stroke="#DADADA" stroke-width="4" stroke-linecap="round" stroke-linejoin="round" stroke-miterlimit="10" d="
		M514.274,433.095l17.509-0.742l-7.854,29.098c-0.365,1.268-0.547,2.193-0.547,2.776c0,0.457,0.091,0.806,0.273,1.046
		c0.182,0.241,0.435,0.361,0.758,0.361c0.72,0,1.639-0.56,2.756-1.68c1.862-1.849,3.687-4.466,5.475-7.852l2.852,1.641
		c-4.755,8.776-9.98,13.164-15.676,13.164c-1.934,0-3.459-0.586-4.578-1.758s-1.678-2.773-1.678-4.805
		c0-1.406,0.169-2.734,0.507-3.984l5.398-20.234c0.13-0.36,0.195-0.733,0.195-1.12c0-0.721-0.3-1.294-0.898-1.719
		s-1.628-0.638-3.086-0.638h-2.5L514.274,433.095z M528.367,411.923c1.776,0,3.291,0.627,4.545,1.881s1.881,2.769,1.881,4.545
		s-0.627,3.292-1.881,4.545c-1.254,1.254-2.769,1.881-4.545,1.881s-3.292-0.627-4.545-1.881c-1.254-1.253-1.881-2.769-1.881-4.545
		s0.627-3.291,1.881-4.545C525.075,412.55,526.591,411.923,528.367,411.923z" class="FCXLIkJo_11"></path>
	
		<path fill="#DADADA" stroke="#DADADA" stroke-width="4" stroke-linecap="round" stroke-linejoin="round" stroke-miterlimit="10" d="
		M585.418,416.689l4.492-3.555h3.398l-4.453,19.961h-3.438c-0.104-4.713-0.729-8.346-1.875-10.898
		c-1.146-2.552-2.787-4.531-4.922-5.938c-2.136-1.406-4.558-2.109-7.266-2.109c-3.49,0-6.303,0.949-8.438,2.848
		c-2.136,1.899-3.203,4.266-3.203,7.1c0,2.186,0.665,3.901,1.997,5.149c1.331,1.249,5.328,3.114,11.992,5.595
		c4.425,1.671,7.522,3.191,9.293,4.559s3.131,3.06,4.081,5.078s1.426,4.304,1.426,6.856c0,3.62-0.912,6.929-2.734,9.924
		c-1.823,2.995-4.453,5.353-7.891,7.071c-3.438,1.718-7.436,2.578-11.992,2.578c-3.568,0-6.699-0.482-9.395-1.445
		s-5.385-2.591-8.066-4.883l-3.242,3.594h-3.594l4.492-20.742h3.477c0.025,4.792,0.67,8.535,1.934,11.23
		c1.263,2.695,3.131,4.779,5.605,6.25c2.474,1.472,5.352,2.207,8.633,2.207c3.906,0,7.083-1.067,9.531-3.203
		c2.447-2.135,3.672-4.7,3.672-7.695c0-2.474-0.925-4.453-2.773-5.938c-1.016-0.833-4.623-2.486-10.82-4.961
		c-4.818-1.9-8.047-3.47-9.688-4.707c-1.641-1.236-2.897-2.786-3.77-4.648c-0.873-1.861-1.309-4.082-1.309-6.66
		c0-5.416,1.822-9.883,5.469-13.398c3.646-3.516,8.359-5.273,14.141-5.273c2.891,0,5.547,0.469,7.969,1.406
		S582.996,414.528,585.418,416.689z" class="FCXLIkJo_12"></path>
	
		<path fill="#DADADA" stroke="#DADADA" stroke-width="4" stroke-linecap="round" stroke-linejoin="round" stroke-miterlimit="10" d="
		M604.742,412.001l17.571-0.742l-8.667,32.447c3.017-5.068,5.876-8.43,8.578-10.084c2.702-1.653,5.417-2.48,8.146-2.48
		c2.439,0,4.425,0.755,5.957,2.264c1.531,1.51,2.297,3.428,2.297,5.755c0,2.047-0.417,4.349-1.25,6.906l-4.468,16.121
		c-0.183,0.616-0.273,1.191-0.273,1.727c0,0.482,0.111,0.845,0.336,1.085c0.224,0.241,0.522,0.361,0.895,0.361
		c2.207,0,4.813-3.164,7.816-9.492l3.23,1.055c-2.097,4.818-4.448,8.295-7.056,10.43c-2.607,2.136-5.261,3.203-7.96,3.203
		c-2.148,0-3.846-0.6-5.09-1.797c-1.245-1.197-1.867-2.773-1.867-4.727c0-1.875,0.587-4.869,1.762-8.984
		c1.706-5.911,2.736-9.72,3.091-11.426c0.354-1.705,0.531-3.014,0.531-3.926c0-0.938-0.245-1.673-0.734-2.207
		c-0.49-0.533-1.15-0.801-1.979-0.801c-2.462,0-5.333,2.149-8.611,6.447c-3.279,4.299-5.758,9.589-7.437,15.871l-2.876,10.768
		l-10.373,0.313l13.627-51.016c0.13-0.391,0.195-0.781,0.195-1.172c0-0.677-0.3-1.217-0.898-1.621
		c-0.6-0.403-1.641-0.605-3.125-0.605h-2.422L604.742,412.001z" class="FCXLIkJo_13"></path>
	
		<path fill="#DADADA" stroke="#DADADA" stroke-width="4" stroke-linecap="round" stroke-linejoin="round" stroke-miterlimit="10" d="
		M682.677,438.72l2.114-5.664l10.013-0.742l-7.764,27.924c-0.521,1.903-0.781,3.115-0.781,3.637c0,0.392,0.084,0.691,0.254,0.9
		c0.169,0.209,0.424,0.313,0.763,0.313c1.938,0,4.45-3.033,7.54-9.102l2.945,1.602c-4.57,8.881-9.559,13.32-14.965,13.32
		c-1.854,0-3.291-0.566-4.309-1.699c-1.019-1.133-1.619-2.818-1.802-5.059c-1.975,2.5-3.891,4.252-5.748,5.254
		s-3.825,1.504-5.902,1.504c-3.56,0-6.494-1.282-8.807-3.848c-2.312-2.564-3.468-6.074-3.468-10.527
		c0-4.271,1.033-8.359,3.101-12.266s4.726-6.946,7.977-9.121c3.25-2.174,6.578-3.262,9.985-3.262c2.34,0,4.225,0.547,5.655,1.641
		C680.909,434.618,681.975,436.351,682.677,438.72z M676.093,436.611c-3.171,0-6.022,2.227-8.555,6.68
		c-2.533,4.453-3.8,9.558-3.8,15.313c0,2.683,0.401,4.577,1.205,5.684c0.803,1.107,1.957,1.66,3.46,1.66
		c1.581,0,3.278-0.801,5.092-2.403c1.814-1.603,3.421-4.286,4.821-8.051c1.399-3.765,2.112-7.769,2.141-12.011
		c0-2.524-0.383-4.301-1.15-5.329C678.541,437.125,677.469,436.611,676.093,436.611z" class="FCXLIkJo_14"></path>
	
		<path fill="#DADADA" stroke="#DADADA" stroke-width="4" stroke-linecap="round" stroke-linejoin="round" stroke-miterlimit="10" d="
		M749.561,455.907l3.161,0.977c-1.913,4.74-4.149,8.21-6.709,10.41c-2.56,2.201-5.171,3.301-7.833,3.301
		c-2.224,0-3.956-0.605-5.196-1.816c-1.242-1.211-1.862-2.845-1.862-4.902c0-1.822,0.576-4.739,1.729-8.75
		c1.687-5.989,2.673-9.681,2.961-11.074c0.288-1.393,0.434-2.52,0.434-3.379c0-0.963-0.233-1.719-0.697-2.266s-1.048-0.82-1.75-0.82
		c-1.28,0-2.636,0.534-4.066,1.602c-2.385,1.719-4.644,4.311-6.777,7.773c-2.134,3.464-3.728,7.031-4.781,10.703l-3.389,12.109
		l-10.32,0.352l8.055-30.156c0.078-0.313,0.117-0.611,0.117-0.898c0-0.755-0.277-1.334-0.831-1.738
		c-0.555-0.403-1.599-0.605-3.132-0.605h-2.084l0.578-3.633l16.845-0.742l-3.008,12.693c5.781-8.775,11.418-13.162,16.911-13.162
		c2.496,0,4.539,0.774,6.129,2.323s2.385,3.491,2.385,5.826c0,1.879-0.361,4.161-1.083,6.847l-3.589,13.312
		c-0.651,2.095-0.977,3.42-0.977,3.977c0,0.397,0.098,0.695,0.293,0.895s0.475,0.298,0.84,0.298c0.884,0,1.82-0.521,2.81-1.563
		C746.388,462.001,748.001,459.371,749.561,455.907z" class="FCXLIkJo_15"></path>
	
		<path fill="#DADADA" stroke="#DADADA" stroke-width="4" stroke-linecap="round" stroke-linejoin="round" stroke-miterlimit="10" d="
		M452.215,513.431c1.536-0.911,2.669-2.369,3.398-4.375h3.516l-4.453,21.797h-3.438c-0.026-5.677-0.534-9.771-1.523-12.285
		c-0.99-2.513-2.553-4.459-4.688-5.84c-2.136-1.38-4.662-2.07-7.578-2.07c-3.229,0-6.387,1.25-9.473,3.75s-5.827,6.732-8.223,12.695
		c-2.396,5.964-3.594,12.148-3.594,18.555c0,3.725,0.586,6.765,1.758,9.121c1.172,2.357,2.93,4.206,5.273,5.547
		c2.344,1.342,4.961,2.012,7.852,2.012c3.697,0,7.161-1.23,10.391-3.691c3.229-2.461,5.846-6.152,7.852-11.074l3.281,1.484
		c-2.24,5.912-5.515,10.365-9.824,13.359c-4.311,2.995-9.447,4.492-15.41,4.492c-7.396,0-13.242-2.09-17.539-6.27
		s-6.445-9.785-6.445-16.816c0-6.849,1.504-13.229,4.512-19.141c3.008-5.911,6.953-10.396,11.836-13.457
		c4.883-3.06,10.176-4.59,15.879-4.59c3.541,0,6.627,0.534,9.258,1.602C447.462,509.304,449.923,511.035,452.215,513.431z" class="FCXLIkJo_16"></path>
	
		<path fill="#DADADA" stroke="#DADADA" stroke-width="4" stroke-linecap="round" stroke-linejoin="round" stroke-miterlimit="10" d="
		M491.506,534.72l2.114-5.664l10.013-0.742l-7.764,27.924c-0.521,1.903-0.781,3.115-0.781,3.637c0,0.392,0.084,0.691,0.254,0.9
		c0.169,0.209,0.424,0.313,0.763,0.313c1.938,0,4.45-3.033,7.54-9.102l2.945,1.602c-4.57,8.881-9.559,13.32-14.965,13.32
		c-1.854,0-3.291-0.566-4.309-1.699c-1.019-1.133-1.619-2.818-1.802-5.059c-1.975,2.5-3.891,4.252-5.748,5.254
		s-3.825,1.504-5.902,1.504c-3.56,0-6.494-1.282-8.807-3.848c-2.312-2.564-3.468-6.074-3.468-10.527
		c0-4.271,1.033-8.359,3.101-12.266s4.726-6.946,7.977-9.121c3.25-2.174,6.578-3.262,9.985-3.262c2.34,0,4.225,0.547,5.655,1.641
		C489.737,530.618,490.803,532.351,491.506,534.72z M484.921,532.611c-3.171,0-6.022,2.227-8.555,6.68
		c-2.533,4.453-3.8,9.558-3.8,15.313c0,2.683,0.401,4.577,1.205,5.684c0.803,1.107,1.957,1.66,3.46,1.66
		c1.581,0,3.278-0.801,5.092-2.403c1.814-1.603,3.421-4.286,4.821-8.051c1.399-3.765,2.112-7.769,2.141-12.011
		c0-2.524-0.383-4.301-1.15-5.329C487.369,533.125,486.298,532.611,484.921,532.611z" class="FCXLIkJo_17"></path>
	
		<path fill="#DADADA" stroke="#DADADA" stroke-width="4" stroke-linecap="round" stroke-linejoin="round" stroke-miterlimit="10" d="
		M535.244,529.095h7.322l-1.037,4.063h-7.443l-7.8,29.717c-1.592,6-3.652,11.29-6.181,15.869c-2.969,0.416-6.159,1.067-9.57,1.953
		c-1.146,0.313-1.836,0.469-2.07,0.469c-0.416,0-0.625-0.209-0.625-0.625c0-0.261,0.15-0.651,0.451-1.172
		c1.955-3.334,3.535-6.498,4.738-9.492c2.287-5.625,3.846-9.998,4.68-13.117l6.304-23.602h-7.149l1.322-4.063h6.912
		c4.031-14.974,10.381-22.461,19.049-22.461c2.259,0,4.031,0.593,5.317,1.777c1.287,1.186,1.931,2.65,1.931,4.395
		c0,1.459-0.488,2.695-1.465,3.711s-2.168,1.523-3.574,1.523c-1.328,0-2.37-0.384-3.125-1.152c-0.756-0.768-1.225-2.076-1.406-3.926
		c-0.141-1.614-0.491-2.422-1.052-2.422c-0.741,0-1.412,0.717-2.013,2.148C537.818,514.981,536.646,520.449,535.244,529.095z" class="FCXLIkJo_18"></path>
	
		<path fill="#DADADA" stroke="#DADADA" stroke-width="4" stroke-linecap="round" stroke-linejoin="round" stroke-miterlimit="10" d="
		M555.652,551.361c-0.104,0.99-0.156,1.811-0.156,2.461c0,2.761,0.677,4.883,2.031,6.367c1.354,1.484,3.164,2.227,5.43,2.227
		c1.9,0,3.77-0.455,5.605-1.367c1.836-0.911,4.082-2.721,6.738-5.43l2.617,2.031c-3.047,3.359-6.035,5.742-8.965,7.148
		s-6.088,2.109-9.473,2.109c-4.792,0-8.562-1.373-11.309-4.121c-2.748-2.747-4.121-6.478-4.121-11.191
		c0-4.192,1.146-8.209,3.438-12.051c2.291-3.841,5.423-6.868,9.395-9.082c3.971-2.213,8.248-3.32,12.832-3.32
		c3.359,0,5.963,0.808,7.813,2.422c1.849,1.615,2.773,3.659,2.773,6.133c0,2.058-0.742,4.121-2.227,6.191s-3.894,3.867-7.227,5.391
		C567.513,548.802,562.449,550.163,555.652,551.361z M556.121,548.079c4.453-0.857,7.695-2.234,9.727-4.132
		c2.786-2.624,4.18-5.573,4.18-8.847c0-1.352-0.319-2.41-0.957-3.176c-0.639-0.768-1.439-1.15-2.402-1.15
		c-1.928,0-3.725,1.156-5.391,3.469C558.829,537.595,557.11,542.208,556.121,548.079z" class="FCXLIkJo_19"></path>
</g>
<style data-made-with="vivus-instant">.FCXLIkJo_0{stroke-dasharray:482 484;stroke-dashoffset:483;animation:FCXLIkJo_draw 2000ms ease-in 0ms forwards;}.FCXLIkJo_1{stroke-dasharray:214 216;stroke-dashoffset:215;animation:FCXLIkJo_draw 2000ms ease-in 0ms forwards;}.FCXLIkJo_2{stroke-dasharray:181 183;stroke-dashoffset:182;animation:FCXLIkJo_draw 2000ms ease-in 0ms forwards;}.FCXLIkJo_3{stroke-dasharray:193 195;stroke-dashoffset:194;animation:FCXLIkJo_draw 2000ms ease-in 0ms forwards;}.FCXLIkJo_4{stroke-dasharray:211 213;stroke-dashoffset:212;animation:FCXLIkJo_draw 2000ms ease-in 0ms forwards;}.FCXLIkJo_5{stroke-dasharray:371 373;stroke-dashoffset:372;animation:FCXLIkJo_draw 2000ms ease-in 0ms forwards;}.FCXLIkJo_6{stroke-dasharray:214 216;stroke-dashoffset:215;animation:FCXLIkJo_draw 2000ms ease-in 0ms forwards;}.FCXLIkJo_7{stroke-dasharray:184 186;stroke-dashoffset:185;animation:FCXLIkJo_draw 2000ms ease-in 0ms forwards;}.FCXLIkJo_8{stroke-dasharray:211 213;stroke-dashoffset:212;animation:FCXLIkJo_draw 2000ms ease-in 0ms forwards;}.FCXLIkJo_9{stroke-dasharray:313 315;stroke-dashoffset:314;animation:FCXLIkJo_draw 2000ms ease-in 0ms forwards;}.FCXLIkJo_10{stroke-dasharray:255 257;stroke-dashoffset:256;animation:FCXLIkJo_draw 2000ms ease-in 0ms forwards;}.FCXLIkJo_11{stroke-dasharray:179 181;stroke-dashoffset:180;animation:FCXLIkJo_draw 2000ms ease-in 0ms forwards;}.FCXLIkJo_12{stroke-dasharray:344 346;stroke-dashoffset:345;animation:FCXLIkJo_draw 2000ms ease-in 0ms forwards;}.FCXLIkJo_13{stroke-dasharray:308 310;stroke-dashoffset:309;animation:FCXLIkJo_draw 2000ms ease-in 0ms forwards;}.FCXLIkJo_14{stroke-dasharray:255 257;stroke-dashoffset:256;animation:FCXLIkJo_draw 2000ms ease-in 0ms forwards;}.FCXLIkJo_15{stroke-dasharray:262 264;stroke-dashoffset:263;animation:FCXLIkJo_draw 2000ms ease-in 0ms forwards;}.FCXLIkJo_16{stroke-dasharray:306 308;stroke-dashoffset:307;animation:FCXLIkJo_draw 2000ms ease-in 0ms forwards;}.FCXLIkJo_17{stroke-dasharray:255 257;stroke-dashoffset:256;animation:FCXLIkJo_draw 2000ms ease-in 0ms forwards;}.FCXLIkJo_18{stroke-dasharray:230 232;stroke-dashoffset:231;animation:FCXLIkJo_draw 2000ms ease-in 0ms forwards;}.FCXLIkJo_19{stroke-dasharray:214 216;stroke-dashoffset:215;animation:FCXLIkJo_draw 2000ms ease-in 0ms forwards;}@keyframes FCXLIkJo_draw{100%{stroke-dashoffset:0;}}@keyframes FCXLIkJo_fade{0%{stroke-opacity:1;}93.54838709677419%{stroke-opacity:1;}100%{stroke-opacity:0;}}</style></svg>
