<!--?xml version="1.0" encoding="utf-8"?-->
<!-- Generator: Adobe Illustrator 16.0.0, SVG Export Plug-In . SVG Version: 6.00 Build 0)  -->

<svg version="1.1" id="圖層_1" xmlns="http://www.w3.org/2000/svg" xmlns:xlink="http://www.w3.org/1999/xlink" x="0px" y="0px" width="841.891px" height="595.279px" viewBox="0 0 841.891 595.279" enable-background="new 0 0 841.891 595.279" xml:space="preserve" style="">
<g>
	<path fill="none" stroke="#DADADA" stroke-width="4" stroke-miterlimit="10" d="M280.547,135.08l-25.6,39.2h-8.561v-48.32
		l-0.16-3.84c-0.159-1.707-0.52-2.893-1.079-3.56c-0.561-0.667-1.668-1.106-3.32-1.32l-4.32-0.32v-1.28h34.24v1.28l-1.68,0.16
		c-1.601,0.16-2.654,0.547-3.16,1.16c-0.508,0.614-0.84,1.854-1,3.72l-0.16,3.84v28.48l14.8-22.4v-5.92l-0.16-3.84
		c-0.16-1.546-0.399-2.732-0.72-3.56c-0.32-0.826-1.468-1.346-3.44-1.56l-1.6-0.08v-1.28h34.16v1.28l-4.32,0.24
		c-1.653,0.16-2.76,0.547-3.319,1.16c-0.561,0.614-0.921,1.828-1.08,3.64l-0.16,3.84v28.72c1.172-1.866,2.292-3.613,3.359-5.24
		c1.066-1.626,3.44-5.186,7.12-10.68c3.681-5.493,6.746-9.866,9.2-13.12c2.452-3.252,5.013-5.853,7.68-7.8
		c2.667-1.946,6.026-2.92,10.08-2.92c3.413,0,6.253,1,8.521,3c2.266,2,3.399,4.6,3.399,7.8c0,3.147-1.04,5.76-3.119,7.84
		c-2.08,2.08-4.694,3.12-7.841,3.12c-2.88,0-5.333-0.853-7.359-2.56c-2.027-1.706-3.04-3.946-3.04-6.72
		c0-1.012,0.12-1.826,0.359-2.44c0.24-0.612,0.573-1.292,1-2.04c0.427-0.746,1.013-1.52,1.761-2.32c0.746-0.8,1.12-1.466,1.12-2
		c0-0.48-0.294-0.72-0.881-0.72c-0.479,0-1.079,0.174-1.8,0.52c-0.72,0.348-1.68,1-2.88,1.96c-1.2,0.96-2.493,2.307-3.88,4.04
		c-1.388,1.734-2.92,3.774-4.6,6.12c-1.681,2.348-4.574,6.708-8.681,13.08c-4.107,6.374-7.894,12.32-11.359,17.84
		c-3.468,5.52-6.188,9.854-8.16,13h-9.36V135.08z" class="bJXhXvsw_0"></path>
	<path fill="none" stroke="#DADADA" stroke-width="4" stroke-miterlimit="10" d="M355.67,156.2c-0.321,1.012-0.614,2.33-0.882,3.955
		s-0.401,2.97-0.401,4.035c0,2.984,0.413,5.087,1.241,6.313c0.827,1.225,2.044,1.837,3.646,1.837c1.228,0,2.322-0.146,3.283-0.438
		s2.083-0.81,3.365-1.555s2.631-1.835,4.046-3.271c1.415-1.435,2.552-2.845,3.406-4.228l1.121,0.801
		c-2.243,3.15-4.887,5.793-7.932,7.929c-3.046,2.135-6.731,3.202-11.058,3.202c-3.947,0-7.64-1.186-11.08-3.561
		s-5.16-5.856-5.16-10.446c0-6.402,2.898-12.259,8.696-17.569c5.797-5.309,12.625-7.964,20.479-7.964c3.687,0,6.705,0.84,9.057,2.52
		c2.352,1.68,3.527,3.614,3.527,5.8c0,4.214-2.461,7.374-7.383,9.48C368.722,155.148,362.731,156.2,355.67,156.2z M355.906,155.24
		c3.732-0.425,7.12-2.508,10.16-6.252c3.04-3.744,4.561-7.05,4.561-9.917c0-0.796-0.108-1.407-0.32-1.833
		c-0.214-0.425-0.694-0.637-1.44-0.637c-1.174,0-2.348,0.637-3.52,1.913c-1.174,1.275-2.428,3.054-3.76,5.336
		c-1.334,2.284-2.468,4.369-3.4,6.254C357.253,151.988,356.493,153.7,355.906,155.24z" class="bJXhXvsw_1"></path>
	<path fill="none" stroke="#DADADA" stroke-width="4" stroke-miterlimit="10" d="M395.105,124.44c0.64-1.6,1.08-2.772,1.319-3.52
		c0.24-0.746,0.36-1.413,0.36-2c0-0.853-0.44-1.4-1.32-1.64c-0.88-0.24-2.493-0.36-4.84-0.36v-1.28h23.6
		c-1.813,4.427-4.027,9.854-6.64,16.28c-2.613,6.428-5.76,14.16-9.439,23.2c-3.681,9.04-5.614,13.827-5.801,14.36
		c-0.188,0.534-0.279,1.094-0.279,1.68c0,0.48,0.105,0.827,0.319,1.04c0.213,0.213,0.48,0.32,0.801,0.32
		c1.439,0,2.892-0.88,4.359-2.64c1.467-1.76,2.72-3.413,3.76-4.96c1.04-1.546,1.986-3.013,2.841-4.4l1.119,0.56
		c-2.88,4.748-5.373,8.214-7.479,10.4c-2.107,2.188-4.813,3.28-8.12,3.28c-2.88,0-5.254-0.96-7.12-2.88
		c-1.867-1.92-2.8-4.106-2.8-6.56c0-1.226,0.133-2.346,0.4-3.36c0.266-1.013,0.666-2.16,1.199-3.44L395.105,124.44z" class="bJXhXvsw_2"></path>
	<path fill="none" stroke="#DADADA" stroke-width="4" stroke-miterlimit="10" d="M436.865,136.6c-1.174,0-2.48,0.72-3.92,2.16
		c-1.44,1.44-2.934,3.574-4.48,6.4c-1.547,2.827-2.8,5.987-3.76,9.48c-0.96,3.494-1.44,6.6-1.44,9.32c0,3.094,0.468,5.24,1.403,6.44
		c0.935,1.2,2.256,1.8,3.966,1.8c1.335,0,2.537-0.227,3.606-0.68c1.067-0.453,2.256-1.16,3.566-2.12
		c1.309-0.96,2.403-1.946,3.284-2.96c0.882-1.013,1.803-2.212,2.766-3.6l1.122,0.8c-3.046,4.213-6.078,7.12-9.098,8.72
		c-3.019,1.6-6.237,2.4-9.656,2.4c-4,0-7.747-1.212-11.239-3.64c-3.494-2.426-5.24-5.96-5.24-10.6c0-6.346,2.818-12.146,8.456-17.4
		c5.638-5.252,12.384-7.88,20.24-7.88c4.647,0,7.894,0.854,9.737,2.56c1.844,1.708,2.767,3.6,2.767,5.68
		c0,2.294-0.686,4.147-2.053,5.56c-1.367,1.414-3.124,2.12-5.269,2.12c-1.932,0-3.54-0.56-4.828-1.68
		c-1.287-1.12-1.931-2.506-1.931-4.16c0-1.386,0.626-2.88,1.88-4.48c1.252-1.6,1.88-2.692,1.88-3.28c0-0.32-0.147-0.56-0.44-0.72
		C437.891,136.68,437.451,136.6,436.865,136.6z" class="bJXhXvsw_3"></path>
	<path fill="none" stroke="#DADADA" stroke-width="4" stroke-miterlimit="10" d="M488.704,151.08c0,6.027-2.573,11.48-7.72,16.36
		c-5.147,4.88-11.428,7.32-18.84,7.32c-2.24,0-4.268-0.427-6.08-1.28c-1.814-0.853-3.748-2.373-5.8-4.56
		c-2.054-2.186-3.08-5.52-3.08-10c0-5.92,2.546-11.346,7.64-16.28c5.093-4.933,11.4-7.4,18.92-7.4c2.347,0,4.373,0.414,6.08,1.24
		c1.706,0.828,3.332,2.067,4.88,3.72c1.546,1.653,2.601,3.4,3.16,5.24S488.704,149.16,488.704,151.08z M477.664,139.32
		c0-0.853-0.2-1.52-0.6-2c-0.4-0.48-1.054-0.72-1.96-0.72c-0.96,0-2,0.654-3.12,1.96c-1.12,1.308-2.734,4.054-4.84,8.24
		c-2.107,4.188-4.12,8.694-6.04,13.52c-1.92,4.828-2.88,8.228-2.88,10.2c0,1.014,0.212,1.774,0.64,2.28
		c0.426,0.508,1.066,0.76,1.92,0.76c0.906,0,1.866-0.586,2.88-1.76c1.013-1.172,2.492-3.626,4.44-7.36
		c1.946-3.732,4.026-8.306,6.239-13.72C476.556,145.308,477.664,141.508,477.664,139.32z" class="bJXhXvsw_4"></path>
	<path fill="none" stroke="#DADADA" stroke-width="4" stroke-miterlimit="10" d="M566.704,161.395
		c-2.773,4.382-5.293,7.708-7.56,9.979c-2.268,2.271-5.428,3.406-9.48,3.406c-2.773,0-4.867-0.88-6.279-2.64
		c-1.414-1.76-2.12-3.84-2.12-6.24c0-1.76,0.212-3.28,0.64-4.56c0.427-1.28,1-2.68,1.72-4.2c0.721-1.52,2.227-4.533,4.521-9.04
		c2.292-4.506,3.439-7.426,3.439-8.76c0-0.586-0.119-1.012-0.359-1.28c-0.24-0.266-0.628-0.4-1.16-0.4
		c-0.64,0-1.414,0.374-2.32,1.12c-0.907,0.747-2.027,2.013-3.359,3.798c-1.334,1.786-2.614,3.945-3.84,6.476
		c-1.228,2.533-2.854,5.984-4.881,10.355c-2.027,4.371-3.52,7.596-4.479,9.675c-0.96,2.079-1.708,3.704-2.24,4.876h-15.6
		c0.266-0.586,1.479-3.291,3.64-8.115c2.16-4.824,4.293-9.567,6.4-14.231c2.105-4.664,3.292-7.289,3.56-7.876
		c0.267-0.586,0.546-1.306,0.84-2.159c0.293-0.853,0.44-1.599,0.44-2.239c0-0.586-0.12-1.026-0.36-1.32
		c-0.24-0.292-0.6-0.44-1.08-0.44c-0.693,0-1.493,0.374-2.399,1.12c-0.908,0.746-1.828,1.732-2.761,2.957
		c-0.934,1.227-1.854,2.585-2.76,4.078c-0.907,1.493-1.653,2.879-2.24,4.159l-11.76,24.066h-15.6l13.84-30.382
		c0.106-0.267,0.36-0.893,0.76-1.879c0.4-0.986,0.601-1.853,0.601-2.599c0-0.533-0.107-0.92-0.32-1.16
		c-0.214-0.24-0.534-0.36-0.96-0.36c-0.534,0-1.294,0.346-2.28,1.039c-0.987,0.692-1.974,1.599-2.96,2.718
		c-0.987,1.119-1.96,2.397-2.92,3.836c-0.96,1.439-2,3.17-3.12,5.194l-0.96-0.481c2.826-5.662,5.532-9.521,8.12-11.579
		c2.586-2.058,5.267-3.086,8.04-3.086c2.506,0,4.612,0.883,6.32,2.645c1.706,1.764,2.56,3.901,2.56,6.413
		c0,1.175-0.054,2.164-0.16,2.965c-0.107,0.802-0.268,1.577-0.479,2.325l0.239,0.08c2.986-5.877,5.613-9.751,7.881-11.621
		c2.266-1.87,4.76-2.807,7.479-2.807c2.772,0,5.053,0.763,6.84,2.285c1.786,1.524,2.681,3.542,2.681,6.053
		c0,1.176-0.134,2.245-0.4,3.206c-0.428,1.123-0.72,1.925-0.88,2.405c2.72-5.023,5.053-8.604,7-10.742
		c1.946-2.137,4.893-3.208,8.84-3.208c2.612,0,4.772,0.774,6.48,2.32c1.706,1.547,2.56,3.947,2.56,7.2c0,1.814-0.28,3.414-0.84,4.8
		c-0.561,1.387-1.44,3.333-2.641,5.84c-1.199,2.508-2.747,5.547-4.64,9.12c-1.894,3.574-2.84,5.76-2.84,6.56
		c0,0.48,0.106,0.854,0.32,1.12c0.212,0.267,0.506,0.4,0.88,0.4c1.546,0,3.172-0.945,4.88-2.836c1.706-1.891,3.013-3.502,3.92-4.835
		c0.906-1.331,1.786-2.69,2.64-4.075L566.704,161.395z" class="bJXhXvsw_5"></path>
	<path fill="none" stroke="#DADADA" stroke-width="4" stroke-miterlimit="10" d="M584.787,156.2
		c-0.321,1.012-0.614,2.33-0.882,3.955s-0.401,2.97-0.401,4.035c0,2.984,0.413,5.087,1.241,6.313
		c0.827,1.225,2.044,1.837,3.646,1.837c1.228,0,2.322-0.146,3.283-0.438s2.083-0.81,3.365-1.555s2.631-1.835,4.046-3.271
		c1.415-1.435,2.552-2.845,3.406-4.228l1.121,0.801c-2.243,3.15-4.887,5.793-7.932,7.929c-3.046,2.135-6.731,3.202-11.058,3.202
		c-3.948,0-7.641-1.186-11.08-3.561c-3.44-2.375-5.16-5.856-5.16-10.446c0-6.402,2.898-12.259,8.696-17.569
		c5.797-5.309,12.625-7.964,20.479-7.964c3.687,0,6.705,0.84,9.057,2.52c2.352,1.68,3.527,3.614,3.527,5.8
		c0,4.214-2.461,7.374-7.383,9.48C597.84,155.148,591.848,156.2,584.787,156.2z M585.023,155.24c3.732-0.425,7.12-2.508,10.16-6.252
		c3.04-3.744,4.561-7.05,4.561-9.917c0-0.796-0.108-1.407-0.32-1.833c-0.214-0.425-0.694-0.637-1.44-0.637
		c-1.174,0-2.348,0.637-3.52,1.913c-1.174,1.275-2.428,3.054-3.76,5.336c-1.334,2.284-2.468,4.369-3.4,6.254
		C586.37,151.988,585.61,153.7,585.023,155.24z" class="bJXhXvsw_6"></path>
	<path fill="none" stroke="#DADADA" stroke-width="4" stroke-miterlimit="10" d="M267.107,232.04l-1.04,2.56h-8.96l-12.08,29.2
		c-0.374,0.907-0.614,1.574-0.721,2c-0.107,0.428-0.159,0.854-0.159,1.28c0,0.479,0.105,0.84,0.319,1.08
		c0.213,0.24,0.507,0.359,0.88,0.359c0.692,0,1.507-0.306,2.44-0.92c0.933-0.612,1.906-1.439,2.92-2.479
		c1.013-1.04,2.066-2.333,3.16-3.88c1.093-1.547,1.986-2.986,2.68-4.32l1.04,0.56c-2.613,4.374-5.134,7.681-7.56,9.921
		c-2.428,2.239-5.428,3.359-9,3.359c-3.094,0-5.414-0.92-6.96-2.76c-1.548-1.84-2.32-4.04-2.32-6.6c0-1.173,0.133-2.2,0.4-3.08
		c0.266-0.88,0.72-2.146,1.359-3.801l8.32-19.92h-6.88l1.04-2.56h6.88l6.399-15.44h15.44l-6.48,15.44H267.107z" class="bJXhXvsw_7"></path>
	<path fill="none" stroke="#DADADA" stroke-width="4" stroke-miterlimit="10" d="M302.226,247.08c0,6.027-2.574,11.479-7.72,16.36
		c-5.147,4.88-11.428,7.319-18.841,7.319c-2.239,0-4.267-0.428-6.079-1.28c-1.814-0.852-3.748-2.372-5.801-4.56
		c-2.054-2.187-3.08-5.52-3.08-10c0-5.92,2.547-11.347,7.641-16.28c5.092-4.933,11.399-7.399,18.92-7.399
		c2.346,0,4.372,0.413,6.08,1.239c1.706,0.828,3.332,2.068,4.88,3.721c1.546,1.653,2.6,3.399,3.16,5.24
		C301.946,243.281,302.226,245.16,302.226,247.08z M291.186,235.321c0-0.853-0.2-1.521-0.6-2c-0.4-0.48-1.055-0.721-1.961-0.721
		c-0.96,0-2,0.654-3.119,1.96c-1.12,1.308-2.734,4.054-4.841,8.24c-2.107,4.188-4.119,8.694-6.04,13.521
		c-1.92,4.827-2.88,8.228-2.88,10.199c0,1.015,0.213,1.774,0.641,2.28c0.426,0.508,1.066,0.76,1.92,0.76
		c0.906,0,1.866-0.586,2.88-1.76c1.013-1.172,2.492-3.626,4.439-7.359c1.946-3.733,4.026-8.307,6.24-13.721
		C290.079,241.308,291.186,237.508,291.186,235.321z" class="bJXhXvsw_8"></path>
	<path fill="none" stroke="#DADADA" stroke-width="4" stroke-miterlimit="10" d="M268.547,355.96c-1.334,3.361-2,5.52-2,6.48
		c0,1.494,2.641,2.24,7.92,2.24v1.279h-38v-1.279l4.4-0.32c1.973-0.213,3.426-0.84,4.359-1.881c0.933-1.039,2.253-3.531,3.961-7.479
		c1.706-3.947,3.985-9.492,6.84-16.641c2.853-7.146,5.212-13.066,7.08-17.76c1.866-4.693,3.386-8.533,4.56-11.52l-2.24,0.24
		c-3.04,0.268-7.268,2.92-12.68,7.959c-5.414,5.041-10.414,10.387-15,16.041h-1.36l10.32-25.682h63.2l-10.32,25.682h-1.36
		c0-7.787-0.813-13.732-2.439-17.842c-1.628-4.105-3.588-6.158-5.88-6.158l-2.48-0.16L268.547,355.96z" class="bJXhXvsw_9"></path>
	<path fill="none" stroke="#DADADA" stroke-width="4" stroke-miterlimit="10" d="M348.947,328.04l-13.841,30.4
		c-0.159,0.32-0.427,1.014-0.8,2.08c-0.374,1.068-0.56,1.734-0.56,2c0,0.428,0.092,0.76,0.279,1c0.187,0.24,0.467,0.359,0.841,0.359
		c0.746,0,1.786-0.531,3.12-1.6c1.332-1.066,2.76-2.572,4.279-4.52c1.521-1.947,2.893-4.121,4.12-6.52l1.04,0.479
		c-1.494,2.775-3.027,5.24-4.6,7.4c-1.574,2.16-3.534,3.975-5.88,5.439c-2.348,1.467-5.174,2.201-8.48,2.201
		c-2.667,0-4.667-0.734-6-2.201c-1.334-1.465-2-3.666-2-6.6c-2.08,3.094-4.067,5.334-5.96,6.721c-1.894,1.387-4.334,2.08-7.32,2.08
		c-3.199,0-5.827-1.027-7.88-3.08c-2.054-2.053-3.08-4.732-3.08-8.041c0-6.291,2.893-12.6,8.681-18.92
		c5.786-6.318,12.199-9.479,19.239-9.479c1.653,0,3.146,0.398,4.48,1.199c1.332,0.801,2,2.055,2,3.76l-0.24,1.92l2.8-6.08H348.947z
		 M329.587,332.361c0-0.852-0.174-1.48-0.521-1.881c-0.347-0.398-0.894-0.6-1.64-0.6c-1.014,0-2.174,0.801-3.479,2.4
		c-1.308,1.6-3,4.4-5.08,8.4s-4.16,8.428-6.24,13.279c-2.08,4.854-3.12,8-3.12,9.441c0,0.479,0.106,0.854,0.32,1.119
		c0.212,0.268,0.532,0.4,0.96,0.4c1.652,0,3.226-0.813,4.72-2.441c1.492-1.625,2.64-3.012,3.44-4.158
		c0.8-1.146,1.853-3.094,3.159-5.842c1.307-2.746,2.881-6.279,4.721-10.6S329.587,334.388,329.587,332.361z" class="bJXhXvsw_10"></path>
	<path fill="none" stroke="#DADADA" stroke-width="4" stroke-miterlimit="10" d="M350.706,340.2c2.985-5.332,5.586-8.826,7.8-10.48
		c2.212-1.652,4.626-2.479,7.239-2.479c2.347,0,4.387,0.787,6.12,2.359c1.732,1.574,2.601,3.934,2.601,7.08
		c0,1.387-0.32,2.959-0.96,4.721c-0.641,1.76-1.521,3.799-2.641,6.119s-2.667,5.227-4.64,8.721c-1.974,3.492-2.96,5.746-2.96,6.76
		c0,0.479,0.12,0.84,0.36,1.08c0.239,0.24,0.6,0.359,1.08,0.359c0.586,0,1.359-0.332,2.319-1c0.96-0.666,1.893-1.561,2.8-2.68
		c0.906-1.121,1.853-2.412,2.841-3.881c0.985-1.465,1.8-2.785,2.439-3.959l1.04,0.559c-2.88,4.695-5.294,8.08-7.24,10.16
		c-1.947,2.08-4.894,3.121-8.84,3.121c-2.88,0-5.067-0.84-6.56-2.52c-1.494-1.682-2.24-3.801-2.24-6.361
		c0-1.705,0.253-3.24,0.76-4.6s1.572-3.641,3.2-6.84c1.626-3.199,3.053-6.053,4.28-8.561c1.226-2.506,2.026-4.213,2.399-5.119
		s0.561-1.572,0.561-2c0-0.373-0.094-0.652-0.28-0.84c-0.188-0.188-0.468-0.281-0.84-0.281c-0.374,0-1,0.334-1.88,1
		c-0.88,0.668-2.027,1.84-3.44,3.521c-1.413,1.68-2.84,3.854-4.279,6.52L350.706,340.2z M367.025,314.2
		c0-2.186,0.746-3.973,2.24-5.36c1.492-1.386,3.28-2.08,5.36-2.08c2.132,0,3.946,0.694,5.439,2.08c1.492,1.388,2.24,3.175,2.24,5.36
		c0,2.135-0.76,3.908-2.28,5.32c-1.52,1.414-3.319,2.119-5.399,2.119c-2.134,0-3.935-0.705-5.4-2.119
		C367.758,318.109,367.025,316.335,367.025,314.2z" class="bJXhXvsw_11"></path>
	<path fill="none" stroke="#DADADA" stroke-width="4" stroke-miterlimit="10" d="M405.745,366.921c-3.414,0-6.827-0.828-10.24-2.48
		c-3.414-1.652-6.8-3.359-10.16-5.119c-1.067,0-2.439,0.813-4.12,2.439c-1.68,1.627-2.974,3.348-3.88,5.16h-1.359l11.84-29.121
		h1.439c-0.054,0.748-0.107,1.854-0.159,3.32c-0.054,1.469-0.08,2.52-0.08,3.16c0,2.561,0.186,4.773,0.56,6.641
		c0.373,1.867,1.106,4.014,2.2,6.439c1.093,2.428,2.96,4.373,5.6,5.84c2.641,1.467,5.692,2.201,9.16,2.201
		c3.2,0,5.786-0.934,7.76-2.801c1.973-1.867,2.96-4,2.96-6.4c0-1.6-0.533-3.092-1.6-4.48c-1.067-1.385-3.214-2.973-6.44-4.76
		c-3.228-1.785-7.079-3.932-11.56-6.439c-5.228-3.68-7.84-8.24-7.84-13.68c0-5.387,2.479-10.08,7.439-14.08
		c4.96-4.001,10.906-6.001,17.841-6.001c3.626,0,6.88,0.534,9.76,1.601c2.612,1.174,5.252,2.348,7.92,3.52
		c1.28,0,2.346-0.426,3.2-1.279c0.853-0.854,1.786-2.133,2.8-3.841h1.52l-9.84,24.321h-1.439c0.105-0.693,0.186-1.521,0.239-2.48
		c0.053-0.961,0.08-2.105,0.08-3.439c0-2.133-0.094-3.961-0.279-5.48c-0.188-1.52-0.654-3.172-1.4-4.961
		c-0.747-1.785-2.08-3.305-4-4.559s-4.64-1.881-8.16-1.881c-2.72,0-5.24,0.76-7.56,2.279c-2.32,1.521-3.48,3.561-3.48,6.121
		c0,1.654,0.521,3.199,1.561,4.641c1.04,1.439,2.252,2.559,3.64,3.359c1.387,0.799,3.76,2.119,7.12,3.959s6.08,3.414,8.16,4.721
		s3.88,3.16,5.399,5.561c1.521,2.4,2.28,5.039,2.28,7.92c0,5.813-2.534,10.613-7.6,14.4
		C419.958,365.029,413.531,366.921,405.745,366.921z" class="bJXhXvsw_12"></path>
	<path fill="none" stroke="#DADADA" stroke-width="4" stroke-miterlimit="10" d="M483.425,353.96c-2.454,4.215-4.72,7.4-6.8,9.561
		s-5.12,3.24-9.12,3.24c-2.827,0-4.974-0.854-6.44-2.561c-1.467-1.705-2.199-3.893-2.199-6.561c0-2.08,0.426-4.16,1.279-6.238
		c0.801-1.602,1.84-3.641,3.12-6.121s2.666-5.133,4.16-7.959c1.492-2.826,2.24-4.961,2.24-6.4c0-0.586-0.12-1.014-0.36-1.281
		c-0.24-0.266-0.6-0.398-1.08-0.398c-0.96,0-1.894,0.293-2.8,0.879c-0.907,0.588-2.16,1.828-3.76,3.721
		c-1.601,1.893-3.12,4.574-4.561,8.039l-9.84,24.08h-15.52c1.439-3.52,3.252-7.945,5.439-13.279
		c2.187-5.332,4.706-11.533,7.561-18.6c2.853-7.066,4.88-12.121,6.08-15.16c1.199-3.041,1.946-4.986,2.239-5.84
		s0.44-1.572,0.44-2.16c0-1.227-0.88-1.84-2.64-1.84l-3.521-0.161v-1.28h23.601l-11.12,26.721c2.08-2.4,3.826-4.186,5.239-5.359
		s3.641-1.76,6.681-1.76c2.612,0,4.946,0.799,7,2.398c2.052,1.602,3.08,4,3.08,7.201c0,1.813-0.2,3.254-0.601,4.32
		c-0.399,1.066-1.294,3.066-2.68,6c-1.388,2.934-3,6.133-4.84,9.6s-2.76,5.6-2.76,6.4c0,0.373,0.119,0.666,0.359,0.879
		c0.24,0.215,0.572,0.32,1,0.32c1.44,0,2.946-0.945,4.521-2.84c1.572-1.893,2.76-3.453,3.56-4.68s1.467-2.346,2-3.361
		L483.425,353.96z" class="bJXhXvsw_13"></path>
	<path fill="none" stroke="#DADADA" stroke-width="4" stroke-miterlimit="10" d="M538.784,328.04l-13.84,30.4
		c-0.16,0.32-0.428,1.014-0.8,2.08c-0.374,1.068-0.56,1.734-0.56,2c0,0.428,0.092,0.76,0.279,1c0.187,0.24,0.467,0.359,0.84,0.359
		c0.747,0,1.787-0.531,3.12-1.6c1.333-1.066,2.761-2.572,4.28-4.52s2.893-4.121,4.12-6.52l1.04,0.479
		c-1.494,2.775-3.027,5.24-4.601,7.4s-3.533,3.975-5.88,5.439c-2.348,1.467-5.174,2.201-8.479,2.201c-2.668,0-4.668-0.734-6-2.201
		c-1.334-1.465-2-3.666-2-6.6c-2.08,3.094-4.067,5.334-5.96,6.721c-1.894,1.387-4.334,2.08-7.32,2.08c-3.2,0-5.827-1.027-7.88-3.08
		c-2.054-2.053-3.08-4.732-3.08-8.041c0-6.291,2.893-12.6,8.68-18.92c5.786-6.318,12.2-9.479,19.24-9.479
		c1.652,0,3.146,0.398,4.48,1.199c1.332,0.801,2,2.055,2,3.76l-0.24,1.92l2.8-6.08H538.784z M519.425,332.361
		c0-0.852-0.174-1.48-0.521-1.881c-0.348-0.398-0.894-0.6-1.64-0.6c-1.014,0-2.174,0.801-3.48,2.4c-1.308,1.6-3,4.4-5.08,8.4
		s-4.159,8.428-6.239,13.279c-2.08,4.854-3.12,8-3.12,9.441c0,0.479,0.106,0.854,0.319,1.119c0.213,0.268,0.533,0.4,0.96,0.4
		c1.653,0,3.227-0.813,4.721-2.441c1.492-1.625,2.64-3.012,3.439-4.158c0.801-1.146,1.853-3.094,3.16-5.842
		c1.307-2.746,2.88-6.279,4.72-10.6C518.505,337.56,519.425,334.388,519.425,332.361z" class="bJXhXvsw_14"></path>
	<path fill="none" stroke="#DADADA" stroke-width="4" stroke-miterlimit="10" d="M579.424,327.22c2.506,0,4.652,0.789,6.439,2.361
		c1.786,1.572,2.681,3.934,2.681,7.08c0,1.439-0.294,2.973-0.881,4.6s-1.307,3.373-2.159,5.24c-0.854,1.867-2.374,4.906-4.561,9.119
		c-2.188,4.215-3.28,6.693-3.28,7.439c0,0.428,0.106,0.748,0.32,0.961c0.213,0.213,0.532,0.32,0.96,0.32
		c0.532,0,1.253-0.318,2.16-0.959c0.906-0.639,2.146-1.838,3.72-3.596c1.572-1.758,3.24-4.396,5-7.912l1.04,0.561
		c-2.453,4.383-4.813,7.869-7.08,10.459c-2.268,2.592-5.453,3.887-9.56,3.887c-2.828,0-4.96-0.852-6.4-2.561
		c-1.439-1.705-2.16-3.813-2.16-6.318c0-1.707,0.187-3.094,0.561-4.16c0.372-1.066,1.506-3.521,3.399-7.361
		c1.893-3.84,3.453-6.986,4.681-9.439c1.226-2.453,1.84-4.373,1.84-5.76c0-0.533-0.107-0.92-0.32-1.16
		c-0.214-0.24-0.56-0.359-1.04-0.359c-0.64,0-1.453,0.398-2.439,1.199c-0.987,0.801-2.147,2.078-3.48,3.838
		c-1.334,1.76-2.72,4.158-4.16,7.195l-11.6,24.066h-15.6l13.6-30.383c0.32-0.799,0.692-1.691,1.12-2.678
		c0.426-0.984,0.64-1.691,0.64-2.119c0-0.373-0.08-0.641-0.24-0.801c-0.159-0.158-0.399-0.238-0.72-0.238
		c-0.747,0-1.6,0.332-2.56,0.998s-1.908,1.533-2.84,2.598c-0.935,1.064-1.948,2.41-3.04,4.035c-1.094,1.625-2.174,3.316-3.24,5.074
		l-1.04-0.482c2.56-4.486,5.08-8.064,7.56-10.736c2.48-2.67,5.533-4.008,9.16-4.008c2.561,0,4.572,0.789,6.04,2.365
		c1.467,1.576,2.2,3.781,2.2,6.611c0,1.283-0.12,2.443-0.36,3.486c-0.239,1.043-0.439,1.885-0.6,2.523
		c2.399-4.807,4.706-8.508,6.92-11.098C572.316,328.517,575.424,327.22,579.424,327.22z" class="bJXhXvsw_15"></path>
	<path fill="none" stroke="#DADADA" stroke-width="4" stroke-miterlimit="10" d="M261.747,462.921c-7.254,0-13.28-2.373-18.08-7.121
		c-4.8-4.746-7.2-10.666-7.2-17.76c0-9.279,3.8-17.48,11.4-24.6c7.6-7.119,16.893-10.68,27.88-10.68c3.84,0,7.093,0.547,9.76,1.641
		c2.666,1.094,5.387,2.199,8.16,3.318c1.28,0,2.546-0.492,3.8-1.479c1.253-0.986,2.227-2.146,2.92-3.48h1.44l-11.36,28.32h-1.52
		c0-0.906,0.04-2.893,0.12-5.961c0.08-3.066,0.12-4.785,0.12-5.16c0-5.492-0.414-9.32-1.24-11.48
		c-0.828-2.158-2.84-3.238-6.04-3.238c-2.08,0-4.188,0.732-6.32,2.199c-2.134,1.467-4.2,3.533-6.2,6.199
		c-2,2.668-3.813,5.521-5.439,8.561c-1.628,3.041-2.96,5.947-4,8.721s-1.894,5.639-2.561,8.6c-0.667,2.959-1,5.588-1,7.881
		c0,4.158,0.681,7.332,2.04,9.52c1.36,2.188,3.8,3.279,7.32,3.279c2.56,0,4.786-0.453,6.68-1.359c1.893-0.906,3.652-2.08,5.28-3.52
		c1.626-1.441,2.946-2.947,3.96-4.521c1.013-1.572,1.973-3.291,2.88-5.16l1.44,0.641c-2.24,5.174-5.468,9.24-9.681,12.199
		C272.094,461.441,267.239,462.921,261.747,462.921z" class="bJXhXvsw_16"></path>
	<path fill="none" stroke="#DADADA" stroke-width="4" stroke-miterlimit="10" d="M344.066,424.04l-13.84,30.4
		c-0.16,0.32-0.428,1.014-0.8,2.08c-0.374,1.068-0.561,1.734-0.561,2c0,0.428,0.093,0.76,0.28,1c0.187,0.24,0.466,0.359,0.84,0.359
		c0.746,0,1.786-0.531,3.12-1.6c1.333-1.066,2.76-2.572,4.28-4.52c1.52-1.947,2.893-4.121,4.12-6.52l1.04,0.479
		c-1.494,2.775-3.028,5.24-4.601,7.4c-1.573,2.16-3.533,3.975-5.88,5.439c-2.348,1.467-5.174,2.201-8.479,2.201
		c-2.668,0-4.668-0.734-6-2.201c-1.334-1.465-2-3.666-2-6.6c-2.08,3.094-4.068,5.334-5.96,6.721c-1.895,1.387-4.334,2.08-7.32,2.08
		c-3.2,0-5.828-1.027-7.88-3.08c-2.054-2.053-3.08-4.732-3.08-8.041c0-6.291,2.893-12.6,8.68-18.92
		c5.786-6.318,12.2-9.479,19.24-9.479c1.652,0,3.146,0.398,4.479,1.199s2,2.055,2,3.76l-0.239,1.92l2.8-6.08H344.066z
		 M324.706,428.361c0-0.852-0.173-1.48-0.52-1.881c-0.348-0.398-0.894-0.6-1.64-0.6c-1.014,0-2.174,0.801-3.48,2.4
		c-1.308,1.6-3,4.4-5.08,8.4s-4.16,8.428-6.24,13.279c-2.08,4.854-3.119,8-3.119,9.441c0,0.479,0.105,0.854,0.319,1.119
		c0.213,0.268,0.532,0.4,0.96,0.4c1.652,0,3.227-0.813,4.721-2.441c1.492-1.625,2.64-3.012,3.439-4.158s1.853-3.094,3.16-5.842
		c1.307-2.746,2.88-6.279,4.72-10.6S324.706,430.388,324.706,428.361z" class="bJXhXvsw_17"></path>
	<path fill="none" stroke="#DADADA" stroke-width="4" stroke-miterlimit="10" d="M355.265,426.601h-8.4l1.04-2.561h8.56
		c1.281-2.666,3.252-5.639,5.92-8.92c2.666-3.279,5.893-6.16,9.68-8.641c3.787-2.479,7.813-3.719,12.08-3.719
		c3.117,0,5.656,0.68,7.619,2.039c1.961,1.361,2.941,3.268,2.941,5.721c0,2.027-0.738,3.721-2.213,5.08
		c-1.477,1.359-3.287,2.039-5.432,2.039c-1.609,0-2.992-0.492-4.145-1.479c-1.154-0.986-1.73-2.254-1.73-3.801
		c0-1.865,0.586-3.492,1.76-4.881c1.172-1.385,1.76-2.266,1.76-2.639c0-0.48-0.613-0.721-1.84-0.721c-2.881,0-5.279,2-7.199,6
		s-3.441,8.641-4.561,13.92h10.32l-1.041,2.561h-9.84c-0.428,2.184-1.039,5.006-1.84,8.467c-0.801,3.463-1.879,7.244-3.24,11.344
		c-1.359,4.1-2.973,7.936-4.84,11.504c-1.867,3.566-4.08,6.988-6.64,10.264c-2.56,3.273-5.733,6.15-9.52,8.629
		c-3.786,2.475-7.866,3.713-12.24,3.713c-3.009,0-5.548-0.838-7.617-2.516c-2.068-1.678-3.103-3.85-3.103-6.512
		c0-1.865,0.751-3.516,2.251-4.953c1.502-1.438,3.299-2.156,5.39-2.156c1.931,0,3.62,0.572,5.066,1.717
		c1.449,1.145,2.173,2.623,2.173,4.434c0,2.182-0.667,3.994-2,5.432s-2,2.262-2,2.477c0,0.479,0.373,0.719,1.12,0.719
		c2.667,0,4.787-1.119,6.359-3.355c1.574-2.238,3.08-6.258,4.521-12.061c1.439-5.807,2.866-11.504,4.279-17.094
		c1.413-5.592,2.627-9.746,3.641-12.463C353.318,431.474,354.304,428.945,355.265,426.601z" class="bJXhXvsw_18"></path>
	<path fill="none" stroke="#DADADA" stroke-width="4" stroke-miterlimit="10" d="M390.387,444.2
		c-0.321,1.014-0.614,2.33-0.882,3.955s-0.401,2.971-0.401,4.035c0,2.984,0.413,5.088,1.241,6.313
		c0.827,1.225,2.044,1.838,3.646,1.838c1.228,0,2.322-0.146,3.283-0.439s2.083-0.811,3.365-1.555s2.631-1.836,4.046-3.271
		s2.552-2.846,3.406-4.227l1.121,0.801c-2.243,3.15-4.887,5.793-7.932,7.928c-3.046,2.137-6.731,3.203-11.058,3.203
		c-3.948,0-7.641-1.186-11.08-3.561c-3.44-2.375-5.16-5.857-5.16-10.447c0-6.402,2.898-12.258,8.696-17.568
		c5.797-5.309,12.625-7.963,20.479-7.963c3.687,0,6.705,0.84,9.057,2.52s3.527,3.613,3.527,5.799c0,4.215-2.461,7.375-7.383,9.48
		C403.44,443.148,397.449,444.2,390.387,444.2z M390.624,443.241c3.732-0.426,7.12-2.51,10.16-6.254
		c3.04-3.742,4.561-7.049,4.561-9.916c0-0.797-0.108-1.408-0.32-1.834c-0.214-0.424-0.694-0.637-1.44-0.637
		c-1.174,0-2.348,0.637-3.52,1.912c-1.174,1.275-2.428,3.055-3.76,5.336c-1.334,2.285-2.468,4.369-3.4,6.254
		C391.97,439.988,391.211,441.7,390.624,443.241z" class="bJXhXvsw_19"></path>
</g>
<style data-made-with="vivus-instant">.bJXhXvsw_0{stroke-dasharray:563 565;stroke-dashoffset:564;animation:bJXhXvsw_draw 2800ms ease-in 0ms forwards;}.bJXhXvsw_1{stroke-dasharray:226 228;stroke-dashoffset:227;animation:bJXhXvsw_draw 2800ms ease-in 0ms forwards;}.bJXhXvsw_2{stroke-dasharray:199 201;stroke-dashoffset:200;animation:bJXhXvsw_draw 2800ms ease-in 0ms forwards;}.bJXhXvsw_3{stroke-dasharray:201 203;stroke-dashoffset:202;animation:bJXhXvsw_draw 2800ms ease-in 0ms forwards;}.bJXhXvsw_4{stroke-dasharray:215 217;stroke-dashoffset:216;animation:bJXhXvsw_draw 2800ms ease-in 0ms forwards;}.bJXhXvsw_5{stroke-dasharray:456 458;stroke-dashoffset:457;animation:bJXhXvsw_draw 2800ms ease-in 0ms forwards;}.bJXhXvsw_6{stroke-dasharray:226 228;stroke-dashoffset:227;animation:bJXhXvsw_draw 2800ms ease-in 0ms forwards;}.bJXhXvsw_7{stroke-dasharray:207 209;stroke-dashoffset:208;animation:bJXhXvsw_draw 2800ms ease-in 0ms forwards;}.bJXhXvsw_8{stroke-dasharray:215 217;stroke-dashoffset:216;animation:bJXhXvsw_draw 2800ms ease-in 0ms forwards;}.bJXhXvsw_9{stroke-dasharray:365 367;stroke-dashoffset:366;animation:bJXhXvsw_draw 2800ms ease-in 0ms forwards;}.bJXhXvsw_10{stroke-dasharray:293 295;stroke-dashoffset:294;animation:bJXhXvsw_draw 2800ms ease-in 0ms forwards;}.bJXhXvsw_11{stroke-dasharray:216 218;stroke-dashoffset:217;animation:bJXhXvsw_draw 2800ms ease-in 0ms forwards;}.bJXhXvsw_12{stroke-dasharray:384 386;stroke-dashoffset:385;animation:bJXhXvsw_draw 2800ms ease-in 0ms forwards;}.bJXhXvsw_13{stroke-dasharray:325 327;stroke-dashoffset:326;animation:bJXhXvsw_draw 2800ms ease-in 0ms forwards;}.bJXhXvsw_14{stroke-dasharray:293 295;stroke-dashoffset:294;animation:bJXhXvsw_draw 2800ms ease-in 0ms forwards;}.bJXhXvsw_15{stroke-dasharray:317 319;stroke-dashoffset:318;animation:bJXhXvsw_draw 2800ms ease-in 0ms forwards;}.bJXhXvsw_16{stroke-dasharray:318 320;stroke-dashoffset:319;animation:bJXhXvsw_draw 2800ms ease-in 0ms forwards;}.bJXhXvsw_17{stroke-dasharray:293 295;stroke-dashoffset:294;animation:bJXhXvsw_draw 2800ms ease-in 0ms forwards;}.bJXhXvsw_18{stroke-dasharray:329 331;stroke-dashoffset:330;animation:bJXhXvsw_draw 2800ms ease-in 0ms forwards;}.bJXhXvsw_19{stroke-dasharray:226 228;stroke-dashoffset:227;animation:bJXhXvsw_draw 2800ms ease-in 0ms forwards;}@keyframes bJXhXvsw_draw{100%{stroke-dashoffset:0;}}@keyframes bJXhXvsw_fade{0%{stroke-opacity:1;}94.28571428571429%{stroke-opacity:1;}100%{stroke-opacity:0;}}</style></svg>
